# Blender 4.2.2 LTS
# www.blender.org
mtllib boulder.mtl
o Icosphere
v 0.000000 -0.693271 0.000000
v 0.419922 -0.315547 0.305088
v -0.154163 -0.303292 0.474474
v -0.561392 -0.341285 0.000000
v -0.186364 -0.366641 -0.573578
v 0.408759 -0.307159 -0.296977
v 0.162735 0.320154 0.500854
v -0.442031 0.332161 0.321151
v -0.461894 0.347087 -0.335582
v 0.198798 0.391102 -0.611846
v 0.546524 0.332246 0.000000
v 0.000000 0.735435 -0.000000
v -0.110308 -0.702266 0.339498
v 0.320575 -0.779546 0.232909
v 0.137261 -0.333775 0.422437
v 0.488691 -0.367223 0.000000
v 0.295601 -0.718815 -0.214764
v -0.314333 -0.618383 -0.000000
v -0.412128 -0.382798 0.299427
v -0.094950 -0.604491 -0.292230
v -0.391587 -0.363719 -0.284504
v 0.157520 -0.383039 -0.484786
v 0.407381 0.000000 0.132363
v 0.691051 -0.000000 -0.224533
v 0.000000 -0.000000 0.627545
v 0.354035 0.000000 0.487287
v -0.623989 0.000000 0.202743
v -0.281375 0.000000 0.387279
v -0.392255 -0.000000 -0.539892
v -0.551054 -0.000000 -0.179046
v 0.396884 0.000000 -0.546263
v 0.000000 -0.000000 -0.623426
v 0.467910 0.434610 0.339955
v -0.163777 0.398254 0.504043
v -0.547180 0.411174 0.000000
v -0.180959 0.440036 -0.556925
v 0.376648 0.349844 -0.273650
v 0.094581 0.602147 0.291097
v 0.275340 0.541672 0.000000
v -0.247298 0.601359 0.179671
v -0.275068 0.668885 -0.199846
v 0.097327 0.619626 -0.299547
vn -0.2133 -0.9657 -0.1483
vn 0.8294 -0.1436 0.5399
vn -0.3117 -0.2528 0.9159
vn -0.9059 -0.4151 -0.0843
vn -0.2771 -0.4639 -0.8414
vn 0.7265 -0.4431 -0.5251
vn 0.2455 0.3913 0.8869
vn -0.6696 0.3217 0.6694
vn -0.8190 0.3339 -0.4667
vn 0.3754 0.4299 -0.8212
vn 0.9177 0.3909 0.0705
vn 0.1453 0.9865 0.0758
vn -0.2603 -0.7331 0.6283
vn 0.5137 -0.7411 0.4323
vn 0.2554 -0.3572 0.8984
vn 0.9600 -0.2660 0.0871
vn 0.4646 -0.7516 -0.4682
vn -0.5849 -0.8049 -0.1004
vn -0.6829 -0.3639 0.6335
vn -0.2688 -0.8225 -0.5012
vn -0.7470 -0.4870 -0.4525
vn 0.3088 -0.4667 -0.8287
vn 0.9345 -0.0585 0.3512
vn 0.9859 -0.0123 -0.1671
vn -0.0817 -0.0811 0.9934
vn 0.6793 -0.0992 0.7271
vn -0.9134 -0.0177 0.4067
vn -0.5591 -0.0443 0.8279
vn -0.6600 -0.0477 -0.7498
vn -0.9445 -0.0517 -0.3244
vn 0.6005 -0.0597 -0.7974
vn 0.0084 -0.0762 -0.9971
vn 0.7811 0.4129 0.4684
vn -0.3253 0.4154 0.8495
vn -0.8896 0.4563 0.0209
vn -0.3017 0.4769 -0.8256
vn 0.7049 0.5999 -0.3783
vn 0.1763 0.8420 0.5099
vn 0.5813 0.8086 -0.0907
vn -0.4291 0.8111 0.3975
vn -0.4485 0.8537 -0.2647
vn 0.3538 0.8528 -0.3840
vt 0.181819 0.000000
vt 0.227273 0.078731
vt 0.136365 0.078731
vt 0.272728 0.157461
vt 0.318182 0.078731
vt 0.363637 0.157461
vt 0.909091 0.000000
vt 0.954545 0.078731
vt 0.863636 0.078731
vt 0.727273 0.000000
vt 0.772727 0.078731
vt 0.681818 0.078731
vt 0.545455 0.000000
vt 0.590909 0.078731
vt 0.500000 0.078731
vt 0.318182 0.236191
vt 0.090910 0.157461
vt 0.181819 0.157461
vt 0.136365 0.236191
vt 0.818182 0.157461
vt 0.909091 0.157461
vt 0.863636 0.236191
vt 0.636364 0.157461
vt 0.727273 0.157461
vt 0.681818 0.236191
vt 0.454546 0.157461
vt 0.545455 0.157461
vt 0.500000 0.236191
vt 0.227273 0.236191
vt 0.045455 0.236191
vt 0.772727 0.236191
vt 0.590909 0.236191
vt 0.409092 0.236191
vt 0.181819 0.314921
vt 0.272728 0.314921
vt 0.227273 0.393651
vt 0.000000 0.314921
vt 0.090910 0.314921
vt 0.045455 0.393651
vt 0.727273 0.314921
vt 0.818182 0.314921
vt 0.772727 0.393651
vt 0.545455 0.314921
vt 0.636364 0.314921
vt 0.590909 0.393651
vt 0.363637 0.314921
vt 0.454546 0.314921
vt 0.409092 0.393651
vt 0.500000 0.393651
vt 0.454546 0.472382
vt 0.681818 0.393651
vt 0.636364 0.472382
vt 0.863636 0.393651
vt 0.818182 0.472382
vt 0.909091 0.314921
vt 0.136365 0.393651
vt 0.090910 0.472382
vt 0.318182 0.393651
vt 0.272728 0.472382
vt 0.954545 0.236191
vt 1.000000 0.157461
vt 0.409092 0.078731
vt 0.363637 0.000000
s 1
usemtl Material.010
f 1/1/1 14/2/14 13/3/13
f 2/4/2 14/5/14 16/6/16
f 1/7/1 13/8/13 18/9/18
f 1/10/1 18/11/18 20/12/20
f 1/13/1 20/14/20 17/15/17
f 2/4/2 16/6/16 23/16/23
f 3/17/3 15/18/15 25/19/25
f 4/20/4 19/21/19 27/22/27
f 5/23/5 21/24/21 29/25/29
f 6/26/6 22/27/22 31/28/31
f 2/4/2 23/16/23 26/29/26
f 3/17/3 25/19/25 28/30/28
f 4/20/4 27/22/27 30/31/30
f 5/23/5 29/25/29 32/32/32
f 6/26/6 31/28/31 24/33/24
f 7/34/7 33/35/33 38/36/38
f 8/37/8 34/38/34 40/39/40
f 9/40/9 35/41/35 41/42/41
f 10/43/10 36/44/36 42/45/42
f 11/46/11 37/47/37 39/48/39
f 39/48/39 42/49/42 12/50/12
f 39/48/39 37/47/37 42/49/42
f 37/47/37 10/43/10 42/49/42
f 42/45/42 41/51/41 12/52/12
f 42/45/42 36/44/36 41/51/41
f 36/44/36 9/40/9 41/51/41
f 41/42/41 40/53/40 12/54/12
f 41/42/41 35/41/35 40/53/40
f 35/41/35 8/55/8 40/53/40
f 40/39/40 38/56/38 12/57/12
f 40/39/40 34/38/34 38/56/38
f 34/38/34 7/34/7 38/56/38
f 38/36/38 39/58/39 12/59/12
f 38/36/38 33/35/33 39/58/39
f 33/35/33 11/46/11 39/58/39
f 24/33/24 37/47/37 11/46/11
f 24/33/24 31/28/31 37/47/37
f 31/28/31 10/43/10 37/47/37
f 32/32/32 36/44/36 10/43/10
f 32/32/32 29/25/29 36/44/36
f 29/25/29 9/40/9 36/44/36
f 30/31/30 35/41/35 9/40/9
f 30/31/30 27/22/27 35/41/35
f 27/22/27 8/55/8 35/41/35
f 28/30/28 34/38/34 8/37/8
f 28/30/28 25/19/25 34/38/34
f 25/19/25 7/34/7 34/38/34
f 26/29/26 33/35/33 7/34/7
f 26/29/26 23/16/23 33/35/33
f 23/16/23 11/46/11 33/35/33
f 31/28/31 32/32/32 10/43/10
f 31/28/31 22/27/22 32/32/32
f 22/27/22 5/23/5 32/32/32
f 29/25/29 30/31/30 9/40/9
f 29/25/29 21/24/21 30/31/30
f 21/24/21 4/20/4 30/31/30
f 27/22/27 28/60/28 8/55/8
f 27/22/27 19/21/19 28/60/28
f 19/21/19 3/61/3 28/60/28
f 25/19/25 26/29/26 7/34/7
f 25/19/25 15/18/15 26/29/26
f 15/18/15 2/4/2 26/29/26
f 23/16/23 24/33/24 11/46/11
f 23/16/23 16/6/16 24/33/24
f 16/6/16 6/26/6 24/33/24
f 17/15/17 22/27/22 6/26/6
f 17/15/17 20/14/20 22/27/22
f 20/14/20 5/23/5 22/27/22
f 20/12/20 21/24/21 5/23/5
f 20/12/20 18/11/18 21/24/21
f 18/11/18 4/20/4 21/24/21
f 18/9/18 19/21/19 4/20/4
f 18/9/18 13/8/13 19/21/19
f 13/8/13 3/61/3 19/21/19
f 16/6/16 17/62/17 6/26/6
f 16/6/16 14/5/14 17/62/17
f 14/5/14 1/63/1 17/62/17
f 13/3/13 15/18/15 3/17/3
f 13/3/13 14/2/14 15/18/15
f 14/2/14 2/4/2 15/18/15
