# Blender 4.2.2 LTS
# www.blender.org
mtllib bush.mtl
o BUSH.001
v -0.266924 -0.166027 -0.014099
v 0.244240 0.358842 -0.082309
v -0.635195 0.118564 -0.584024
v -0.124030 0.643432 -0.652233
v -0.080587 -0.169801 -0.292530
v 0.057903 0.362617 0.196122
v 0.159239 0.265685 -0.834990
v 0.297730 0.798103 -0.346339
v -0.265617 -0.127738 0.094835
v 0.242933 0.320553 -0.191242
v -0.757510 0.118360 -0.393946
v -0.248959 0.566651 -0.680023
v 0.000292 -0.271165 -0.058793
v -0.022977 0.463980 -0.037615
v -0.077974 -0.252572 -0.790201
v -0.101243 0.482573 -0.769023
v -0.105384 -0.141971 -0.312190
v 0.082700 0.334787 0.215782
v 0.552069 -0.049906 -0.629535
v 0.740153 0.426852 -0.101563
v -0.329335 -0.088055 -0.033680
v 0.306651 0.280871 -0.062727
v -0.267428 -0.251061 -0.748541
v 0.368559 0.117865 -0.777588
v 0.294684 0.020448 0.141362
v -0.317369 0.172368 -0.237769
v 0.690006 0.412484 -0.339738
v 0.077953 0.564404 -0.718869
v -0.195650 0.152343 0.265259
v 0.172966 0.040472 -0.361666
v -0.814869 0.258547 -0.117778
v -0.446253 0.146676 -0.744703
v 0.229067 0.202661 0.209227
v -0.251751 -0.009846 -0.305635
v -0.059535 0.879448 0.199406
v -0.540354 0.666941 -0.315456
v 0.305922 -0.004192 -0.204985
v -0.328606 0.197007 0.108578
v 0.347321 0.649345 -0.540552
v -0.287207 0.850543 -0.226989
v 0.357005 -0.169115 -0.134585
v 0.057730 0.222954 0.411442
v 0.612556 0.450065 -0.439114
v 0.313281 0.842134 0.106912
v 0.567364 -0.010433 0.072365
v -0.152629 0.064271 0.204492
v 0.691957 0.646275 0.380002
v -0.028037 0.720979 0.512128
v 0.249318 -0.210515 -0.139460
v 0.165417 0.264353 0.416317
v 0.470659 0.339153 -0.575696
v 0.386758 0.814022 -0.019918
v 0.453976 -0.245919 0.128387
v -0.039241 0.299757 0.148469
v 0.999304 0.247703 0.108810
v 0.506087 0.793379 0.128892
v 0.564718 0.025751 0.050927
v -0.149983 0.028087 0.225930
v 0.733048 0.236382 0.735564
v 0.018347 0.238719 0.910567
v 0.322470 -0.091330 -0.190396
v 0.092264 0.145169 0.467253
v 0.970418 0.240379 -0.082873
v 0.740212 0.476878 0.574776
v 0.106581 -0.182697 0.423491
v 0.308154 0.236535 -0.146634
v 0.209684 0.386382 0.878406
v 0.411257 0.805613 0.308282
v -0.063542 -0.115037 -0.066056
v 0.478276 0.168875 0.342913
v 0.170842 0.272768 -0.645797
v 0.712660 0.556681 -0.236829
v -0.062069 -0.082030 0.364020
v 0.476804 0.135868 -0.087163
v -0.488553 0.465212 0.118936
v 0.050319 0.683110 -0.332246
v 0.385581 0.021014 0.460239
v 0.029154 0.032825 -0.183382
v 0.215218 0.728746 0.567571
v -0.141209 0.740557 -0.076051
v -0.176806 -0.222487 0.299062
v -0.035659 0.482664 0.143279
v -0.432374 -0.025253 0.960283
v -0.291227 0.679898 0.804500
v -0.439848 -0.016912 0.270655
v 0.227383 0.277089 0.171687
v -0.693051 0.634864 0.499797
v -0.025820 0.928864 0.400828
v -0.066456 -0.232825 0.266656
v -0.146010 0.493002 0.175685
v -0.255118 -0.164772 0.974613
v -0.334673 0.561054 0.883643
v -0.315035 -0.127477 0.061738
v 0.102569 0.387655 0.380603
v -0.895758 0.102544 0.450686
v -0.478154 0.617676 0.769550
v -0.436935 -0.004014 0.310668
v 0.224469 0.264191 0.131673
v -0.759191 0.559912 -0.035117
v -0.097786 0.828117 -0.214112
v -0.140515 -0.194955 0.390073
v -0.071950 0.455133 0.052268
v -0.828885 -0.021665 0.583842
v -0.760320 0.628423 0.246037
v -0.041825 0.185062 -0.136861
v -0.170641 0.075115 0.579202
v -0.293778 0.873755 -0.076442
v -0.422594 0.763808 0.639621
v 0.213506 -0.048805 0.254658
v -0.425971 0.308983 0.187683
v 0.058023 -0.194877 0.958872
v -0.581454 0.162911 0.891896
v 0.123380 0.255437 -0.037524
v -0.335846 0.004741 0.479865
v 0.528286 0.584509 0.481312
v 0.069061 0.333813 0.998702
v -0.342916 0.297730 -0.005180
v 0.130450 -0.037552 0.447522
v -0.274623 0.918828 0.383410
v 0.198743 0.583545 0.836112
vn -0.5166 0.5845 0.6257
vn -0.9265 0.3552 -0.1244
vn -0.2747 0.7190 0.6384
vn -0.9938 -0.0345 0.1055
vn -0.3692 0.7514 -0.5469
vn -0.4958 0.8364 -0.2337
vn 0.1395 -0.8207 -0.5541
vn 0.2021 0.9778 -0.0556
vn 0.6474 0.2657 -0.7143
vn -0.5032 -0.3693 -0.7813
vn -0.8450 0.0894 -0.5273
vn -0.1178 0.4395 -0.8905
vn -0.9468 0.1596 -0.2793
vn -0.0380 0.0024 -0.9993
vn -0.0651 0.9581 -0.2788
vn -0.3559 0.8327 -0.4241
vn 0.9515 -0.2779 0.1320
vn -0.5969 0.7572 0.2652
vn 0.3574 0.5993 0.7163
vn 0.8437 0.2732 -0.4622
vn 0.9179 -0.0988 0.3843
vn 0.2436 -0.2361 0.9407
vn 0.9605 0.1357 0.2429
vn 0.2346 -0.6420 0.7299
vn 0.0151 0.5289 0.8485
vn 0.3408 0.4049 0.8485
vn -0.9231 -0.3188 -0.2150
vn 0.4473 0.8510 0.2753
vn -0.5547 0.8270 -0.0916
vn -0.7600 -0.2826 0.5853
vt 0.000000 0.000000
vt 1.000000 0.000000
vt 1.000000 1.000000
vt 0.000000 1.000000
s 0
usemtl Material.002
f 1/1/1 2/2/1 4/3/1 3/4/1
f 5/1/2 6/2/2 8/3/2 7/4/2
f 9/1/3 10/2/3 12/3/3 11/4/3
f 13/1/4 14/2/4 16/3/4 15/4/4
f 17/1/5 18/2/5 20/3/5 19/4/5
f 21/1/6 22/2/6 24/3/6 23/4/6
f 25/1/7 26/2/7 28/3/7 27/4/7
f 29/1/8 30/2/8 32/3/8 31/4/8
f 33/1/9 34/2/9 36/3/9 35/4/9
f 37/1/10 38/2/10 40/3/10 39/4/10
f 41/1/11 42/2/11 44/3/11 43/4/11
f 45/1/12 46/2/12 48/3/12 47/4/12
f 49/1/13 50/2/13 52/3/13 51/4/13
f 53/1/14 54/2/14 56/3/14 55/4/14
f 57/1/15 58/2/15 60/3/15 59/4/15
f 61/1/16 62/2/16 64/3/16 63/4/16
f 65/1/17 66/2/17 68/3/17 67/4/17
f 69/1/18 70/2/18 72/3/18 71/4/18
f 73/1/19 74/2/19 76/3/19 75/4/19
f 77/1/20 78/2/20 80/3/20 79/4/20
f 81/1/21 82/2/21 84/3/21 83/4/21
f 85/1/22 86/2/22 88/3/22 87/4/22
f 89/1/23 90/2/23 92/3/23 91/4/23
f 93/1/24 94/2/24 96/3/24 95/4/24
f 97/1/25 98/2/25 100/3/25 99/4/25
f 101/1/26 102/2/26 104/3/26 103/4/26
f 105/1/27 106/2/27 108/3/27 107/4/27
f 109/1/28 110/2/28 112/3/28 111/4/28
f 113/1/29 114/2/29 116/3/29 115/4/29
f 117/1/30 118/2/30 120/3/30 119/4/30
