# Blender 4.2.2 LTS
# www.blender.org
mtllib grass.mtl
o BUSH.002
v 0.238644 0.355777 0.128341
v -0.153392 0.365446 0.207172
v 0.196018 -0.004835 -0.039415
v -0.196018 0.004835 0.039415
v -0.182112 0.029943 0.077062
v 0.182112 -0.029943 -0.077062
v -0.230350 0.348084 -0.160551
v 0.133875 0.288197 -0.314674
v 0.194600 0.348399 -0.201865
v 0.159033 0.369173 0.196009
v 0.017783 -0.010387 -0.198937
v -0.017783 0.010387 0.198937
v -0.115191 0.022969 -0.161875
v 0.115191 -0.022969 0.161875
v -0.161129 0.410528 -0.074193
v 0.069253 0.364589 0.249557
vn 0.1675 -0.4320 0.8862
vn 0.3954 0.5874 0.7062
vn 0.8926 -0.4390 0.1027
vn -0.8094 -0.2192 0.5449
vt 0.000000 0.000000
vt 1.000000 0.000000
vt 1.000000 1.000000
vt 0.000000 1.000000
s 0
usemtl Material.002
f 4/1/1 3/2/1 1/3/1 2/4/1
f 5/1/2 6/2/2 8/3/2 7/4/2
f 12/1/3 11/2/3 9/3/3 10/4/3
f 13/1/4 14/2/4 16/3/4 15/4/4
