# Blender 4.2.2 LTS
# www.blender.org
mtllib mushroom.mtl
o mashroom
v 0.002651 -0.000000 -0.068469
v -0.010230 0.121574 -0.060628
v 0.060622 -0.000000 0.028431
v 0.059985 0.120188 0.018678
v -0.002538 -0.000000 0.068534
v 0.016384 0.121464 0.060631
v -0.060622 -0.000000 -0.028481
v -0.053836 0.122850 -0.018667
v -0.012710 0.065452 -0.066800
v 0.057066 0.062369 0.020393
v 0.002375 0.065611 0.066697
v -0.067147 0.068682 -0.020374
v 0.007887 0.157700 -0.051720
v 0.049578 0.156646 0.017641
v 0.007159 0.157719 0.062609
v -0.048629 0.159130 -0.028574
v 0.063928 0.214101 -0.100469
v 0.064468 0.211564 0.100232
v -0.051388 0.214101 0.100576
v -0.051928 0.216638 -0.100125
v 0.098433 0.142872 -0.161088
v 0.099311 0.138805 0.160437
v -0.086293 0.142872 0.160966
v -0.087145 0.146937 -0.160515
v 0.102651 0.212413 -0.033813
v 0.092823 0.211564 0.050798
v -0.090188 0.215792 0.033787
v -0.080311 0.216638 -0.050641
v 0.162528 0.138805 0.050223
v 0.173467 0.139600 -0.031964
v -0.150373 0.146937 -0.050281
v -0.161345 0.146145 0.031739
v 0.011133 0.234227 -0.040447
v 0.001659 0.233439 0.040824
v 0.031674 0.008156 0.036086
v 0.060645 0.073210 0.054291
v 0.068560 0.007704 -0.020741
v 0.085218 0.076153 -0.004252
v 0.104370 -0.008143 0.001206
v 0.117611 0.064329 0.007126
v 0.067450 -0.007698 0.058124
v 0.093044 0.061384 0.065670
v 0.047926 0.041952 0.050983
v 0.076411 0.042978 -0.009685
v 0.114042 0.029778 0.006506
v 0.085559 0.028776 0.067007
v 0.067513 0.095746 0.046448
v 0.093681 0.094866 0.005550
v 0.127331 0.082802 0.015463
v 0.093167 0.083798 0.069741
v 0.039006 0.142945 0.036912
v 0.143125 0.119107 -0.018717
v 0.171070 0.099676 0.041913
v 0.066951 0.123514 0.097542
v -0.013550 0.115958 0.027554
v 0.153246 0.077770 -0.061572
v 0.198003 0.046644 0.035565
v 0.031224 0.084831 0.124665
v 0.064348 0.141479 -0.001766
v 0.110652 0.129746 -0.019947
v 0.145677 0.101144 0.080668
v 0.099456 0.112864 0.098773
v 0.080848 0.101491 -0.064314
v 0.035536 0.113121 -0.047383
v 0.103635 0.061106 0.127407
v 0.148868 0.049491 0.110539
v 0.086380 0.138025 0.050244
v 0.130869 0.126764 0.032802
v -0.039457 0.009539 0.013131
v -0.007408 0.009055 0.064934
v -0.037384 -0.009524 0.084567
v -0.069493 -0.009048 0.032702
v -0.060712 0.037429 0.022447
v -0.022490 0.039230 0.069013
v -0.048731 0.023176 0.092494
v -0.086821 0.021406 0.045995
v -0.069276 0.083975 0.043099
v -0.046018 0.083164 0.080043
v -0.065762 0.068835 0.102789
v -0.096829 0.069706 0.054206
v -0.083923 0.117568 0.025414
v -0.076314 0.090143 0.129892
v -0.071414 0.091680 -0.015623
v -0.059226 0.047748 0.151741
v -0.033096 0.127814 0.061740
v -0.034924 0.114237 0.105606
v -0.127184 0.079900 0.093496
v -0.125325 0.093462 0.049725
v 0.014858 0.094165 0.097010
v 0.017330 0.107632 0.054425
v -0.145495 0.045257 0.039129
v -0.147990 0.031807 0.081627
v -0.083290 0.119832 0.059299
v -0.085068 0.106797 0.101437
v -0.020191 -0.022558 -0.081492
v 0.012778 0.007147 -0.056305
v -0.012358 0.022575 -0.039776
v -0.045386 -0.007164 -0.064990
v -0.020854 0.031429 -0.128677
v 0.002861 0.052360 -0.110315
v -0.012715 0.068968 -0.094124
v -0.044327 0.041496 -0.118201
v -0.026837 0.033363 -0.162176
v -0.011671 0.098403 -0.100801
v -0.029583 -0.008226 -0.157235
v -0.005289 0.095962 -0.058918
v 0.021172 0.050786 -0.147907
v 0.023085 0.078635 -0.121401
v -0.059724 0.080940 -0.115106
v -0.061602 0.053148 -0.141559
v 0.056013 0.053480 -0.102524
v 0.054775 0.026369 -0.128359
v -0.090881 0.034269 -0.113616
v -0.089671 0.061327 -0.087830
v -0.020628 0.058634 -0.150674
v -0.018807 0.085393 -0.125221
vn 0.2178 -0.5634 -0.7970
vn 0.0387 0.1082 -0.9934
vn 0.8240 -0.5363 0.1829
vn 0.9977 0.0302 0.0609
vn -0.1597 -0.5781 0.8002
vn 0.0438 0.1319 0.9903
vn -0.7840 -0.5945 -0.1785
vn -0.9807 0.1887 -0.0520
vn 0.0577 0.0614 -0.9964
vn 0.9943 0.0337 0.1007
vn -0.1504 0.0715 0.9860
vn -0.9910 0.0968 -0.0923
vn 0.1341 -0.9085 -0.3958
vn 0.4620 -0.8868 -0.0078
vn -0.0820 -0.9531 0.2913
vn -0.3622 -0.9264 -0.1023
vn 0.2966 0.8292 -0.4738
vn 0.2972 0.8235 0.4833
vn -0.2664 0.8292 0.4914
vn -0.2688 0.8412 -0.4693
vn 0.4602 -0.3459 -0.8176
vn 0.4608 -0.3717 0.8059
vn -0.4688 -0.3485 0.8117
vn -0.4799 -0.3369 -0.8101
vn 0.5329 0.8390 -0.1100
vn 0.5078 0.8413 0.1855
vn -0.5044 0.8535 0.1309
vn -0.4811 0.8603 -0.1688
vn 0.8599 -0.4232 0.2854
vn 0.9103 -0.3905 -0.1375
vn -0.8718 -0.3924 -0.2931
vn -0.9217 -0.3647 0.1323
vn 0.0342 0.9948 -0.0955
vn 0.0081 0.9928 0.1199
vn -0.9472 -0.3129 0.0698
vn -0.8465 0.2985 0.4408
vn -0.3253 -0.2892 -0.9003
vn -0.3300 0.3157 -0.8897
vn 0.5854 -0.7383 -0.3351
vn 0.8833 -0.0486 -0.4662
vn -0.0252 -0.7577 0.6522
vn 0.3965 -0.1074 0.9117
vn -0.8706 0.2610 0.4170
vn -0.2930 0.3104 -0.9043
vn 0.9378 -0.1625 -0.3067
vn 0.3381 -0.1890 0.9219
vn -0.6689 -0.7358 -0.1055
vn -0.4539 -0.6899 -0.5639
vn 0.0001 -0.9708 -0.2401
vn -0.2241 -0.9562 0.1886
vn -0.2802 0.9532 0.1138
vn 0.5500 0.7691 -0.3254
vn 0.7802 0.6042 0.1619
vn -0.0505 0.7942 0.6055
vn -0.9953 -0.0330 -0.0909
vn 0.4083 -0.3605 -0.8387
vn 0.7855 -0.6182 -0.0287
vn -0.6167 -0.3075 0.7247
vn -0.0538 0.9651 -0.2562
vn 0.2137 0.9045 -0.3691
vn 0.5675 0.6231 0.5382
vn 0.2999 0.6923 0.6563
vn -0.2165 -0.1918 -0.9573
vn -0.5941 -0.0670 -0.8016
vn -0.0299 -0.5734 0.8187
vn 0.3679 -0.6420 0.6727
vn 0.2015 0.9589 0.1999
vn 0.3984 0.9089 0.1237
vn 0.3685 -0.2212 -0.9029
vn 0.9772 -0.1984 0.0756
vn 0.1276 -0.7701 0.6250
vn -0.5018 -0.7909 -0.3504
vn -0.0119 0.3271 -0.9449
vn 0.8960 0.4139 0.1606
vn -0.0812 -0.2252 0.9709
vn -0.9468 -0.2900 -0.1395
vn 0.4333 -0.6787 -0.5930
vn 0.7201 -0.6574 -0.2219
vn 0.3427 -0.9383 0.0474
vn -0.0016 -0.9506 -0.3103
vn -0.3098 0.8528 -0.4205
vn -0.2615 0.5170 0.8151
vn 0.1089 -0.1242 -0.9863
vn 0.1999 -0.5996 0.7750
vn 0.1512 0.9875 -0.0443
vn 0.1553 0.8075 0.5691
vn -0.7540 0.4626 0.4663
vn -0.7574 0.6342 -0.1555
vn 0.9236 -0.1379 0.3578
vn 0.9402 0.0898 -0.3286
vn -0.6483 -0.5295 -0.5471
vn -0.6735 -0.7239 0.1495
vn -0.3498 0.9305 0.1085
vn -0.3760 0.8326 0.4067
vn 0.1031 -0.9775 -0.1842
vn 0.8675 -0.3204 0.3804
vn 0.0047 0.2175 0.9761
vn -0.7944 -0.4708 0.3838
vn 0.0945 -0.9123 0.3984
vn 0.4517 -0.6416 0.6200
vn 0.0244 -0.4373 0.8990
vn -0.3013 -0.6616 0.6866
vn -0.1179 0.0652 -0.9909
vn 0.0537 0.9911 -0.1220
vn -0.1132 -0.9386 -0.3259
vn 0.1531 0.3760 0.9139
vn 0.4226 0.3111 -0.8513
vn 0.4852 0.7713 -0.4119
vn -0.4880 0.8102 -0.3246
vn -0.5540 0.3392 -0.7603
vn 0.8918 -0.0140 0.4522
vn 0.8493 -0.5247 -0.0584
vn -0.8629 -0.4972 0.0909
vn -0.8169 0.0381 0.5756
vn -0.0367 0.5677 -0.8224
vn -0.0357 0.7955 -0.6049
vt 0.842640 0.809589
vt 0.849521 0.667614
vt 0.888951 0.710663
vt 0.892442 0.833521
vt 0.704805 0.768765
vt 0.699119 0.607778
vt 0.756329 0.607608
vt 0.757390 0.769939
vt 0.715793 0.925856
vt 0.765631 0.930062
vt 0.842278 0.958512
vt 0.892502 0.980699
vt 0.906934 0.976910
vt 0.906970 0.868248
vt 0.978943 0.866358
vt 0.978943 0.975170
vt 0.773143 0.482675
vt 0.838701 0.113404
vt 0.902275 0.271577
vt 0.857728 0.565035
vt 0.901095 0.662237
vt 0.699975 0.472536
vt 0.136188 0.371576
vt 0.192376 0.297698
vt 0.206321 0.504815
vt 0.310521 0.025990
vt 0.496996 0.260303
vt 0.373171 0.365932
vt 0.293820 0.278114
vt 0.488033 0.762936
vt 0.374544 0.621730
vt 0.017533 0.751383
vt 0.017533 0.247458
vt 0.130944 0.617036
vt 0.927762 0.381380
vt 0.966682 0.538906
vt 0.299801 0.483260
vt 0.655556 0.149665
vt 0.719957 0.053531
vt 0.209379 0.716306
vt 0.946644 0.879728
vt 0.609353 0.594173
vt 0.528562 0.394396
vt 0.611929 0.184967
vt 0.202111 0.970395
vt 0.314795 0.694902
vt 0.181197 0.039668
vt 0.326407 0.952440
vt 0.638865 0.963732
vt 0.628186 0.809637
vt 0.615092 0.683307
vt 0.748331 0.696171
vt 0.745584 0.549159
vt 0.795370 0.552629
vt 0.797813 0.704419
vt 0.623456 0.738397
vt 0.620757 0.620127
vt 0.661192 0.588432
vt 0.669567 0.721012
vt 0.638181 0.876168
vt 0.683990 0.857971
vt 0.753352 0.836433
vt 0.797388 0.845865
vt 0.961801 0.886865
vt 0.961779 0.952063
vt 0.918596 0.953197
vt 0.918596 0.887909
vt 0.663354 0.465622
vt 0.639279 0.088226
vt 0.720686 0.076360
vt 0.742321 0.440568
vt 0.805065 0.451340
vt 0.619254 0.541145
vt 0.134098 0.385568
vt 0.189065 0.310521
vt 0.202707 0.520914
vt 0.304642 0.034516
vt 0.487063 0.272535
vt 0.365929 0.379834
vt 0.288304 0.290627
vt 0.478294 0.783117
vt 0.367272 0.639678
vt 0.018023 0.771381
vt 0.018023 0.259487
vt 0.128968 0.634910
vt 0.757066 0.106129
vt 0.812793 0.123310
vt 0.294154 0.499018
vt 0.555307 0.594451
vt 0.556147 0.325102
vt 0.205698 0.735749
vt 0.892272 0.311674
vt 0.921070 0.482654
vt 0.198589 0.993857
vt 0.308823 0.714007
vt 0.178129 0.048410
vt 0.320182 0.975618
vt 0.869040 0.753012
vt 0.865131 0.891349
vt 0.869509 0.640930
vt 0.879689 0.590077
vt 0.923697 0.598276
vt 0.697572 0.663792
vt 0.685529 0.398144
vt 0.752997 0.371425
vt 0.740236 0.663577
vt 0.832043 0.511948
vt 0.803236 0.720326
vt 0.708887 0.787751
vt 0.745429 0.786283
vt 0.797418 0.822845
vt 0.835573 0.764971
vt 0.829618 0.859768
vt 0.959381 0.890083
vt 0.959362 0.948705
vt 0.920533 0.949725
vt 0.920533 0.891021
vt 0.762972 0.058030
vt 0.890334 0.231438
vt 0.361319 0.544187
vt 0.240167 0.602161
vt 0.299932 0.491080
vt 0.016262 0.664187
vt 0.016262 0.288260
vt 0.147493 0.386654
vt 0.134504 0.543228
vt 0.658922 0.502002
vt 0.635864 0.631460
vt 0.585161 0.786031
vt 0.580508 0.356338
vt 0.375069 0.388139
vt 0.614292 0.556887
vt 0.555663 0.618436
vt 0.593237 0.201473
vt 0.492730 0.639488
vt 0.493969 0.263162
vt 0.269072 0.328142
vt 0.208953 0.440556
vt 0.157914 0.756482
vt 0.352639 0.170393
vt 0.649310 0.847706
vt 0.635400 0.730144
vt 0.856583 0.658690
vt 0.910609 0.333045
vt 0.918358 0.797299
vt 0.627046 0.143538
vt 0.749425 0.812750
vt 0.728095 0.351719
vt 0.792047 0.369607
vt 0.787143 0.821305
vt 0.708445 0.847983
vt 0.956320 0.893858
vt 0.956304 0.942962
vt 0.923780 0.943816
vt 0.923780 0.894644
vt 0.667588 0.059706
vt 0.341590 0.540508
vt 0.298787 0.716127
vt 0.281603 0.524831
vt 0.198730 0.983442
vt 0.024180 0.506427
vt 0.145388 0.520734
vt 0.210614 0.730353
vt 0.696486 0.041682
vt 0.821054 0.122268
vt 0.277046 0.330916
vt 0.928293 0.424242
vt 0.461465 0.550739
vt 0.287443 0.072174
vt 0.188187 0.344073
vt 0.205786 0.537359
vt 0.323107 0.981235
vt 0.163032 0.073508
vt 0.875715 0.545186
vt 0.859289 0.882581
vt 0.671893 0.905164
vt 0.929180 0.564861
s 1
usemtl Material.009
f 10/1/10 4/2/4 6/3/6 11/4/11
f 12/5/12 8/6/8 2/7/2 9/8/9
f 7/9/7 12/5/12 9/8/9 1/10/1
f 3/11/3 10/1/10 11/4/11 5/12/5
f 1/13/1 3/14/3 5/15/5 7/16/7
f 13/17/13 21/18/21 30/19/30
f 6/3/6 4/2/4 14/20/14 15/21/15
f 2/7/2 8/6/8 16/22/16 13/17/13
f 20/23/20 28/24/28 33/25/33
f 32/26/32 23/27/23 19/28/19 27/29/27
f 23/27/23 22/30/22 18/31/18 19/28/19
f 21/32/21 24/33/24 20/23/20 17/34/17
f 14/20/14 29/35/29 22/36/22
f 19/28/19 18/31/18 34/37/34
f 16/22/16 31/38/31 24/39/24
f 13/17/13 16/22/16 24/39/24 21/18/21
f 25/40/25 17/34/17 33/25/33
f 15/21/15 14/20/14 22/36/22 23/41/23
f 15/42/15 23/43/23 32/44/32
f 21/32/21 17/34/17 25/40/25 30/45/30
f 18/31/18 26/46/26 34/37/34
f 24/33/24 31/47/31 28/24/28 20/23/20
f 27/29/27 19/28/19 34/37/34
f 17/34/17 20/23/20 33/25/33
f 22/30/22 29/48/29 26/46/26 18/31/18
f 10/1/10 3/11/3 1/10/1 9/8/9
f 12/5/12 7/9/7 5/49/5 11/50/11
f 4/2/4 10/1/10 9/8/9 2/7/2
f 8/6/8 12/5/12 11/50/11 6/51/6
f 2/7/2 13/17/13 14/20/14 4/2/4
f 6/51/6 15/42/15 16/22/16 8/6/8
f 26/46/26 29/48/29 30/45/30 25/40/25
f 13/17/13 30/19/30 29/35/29 14/20/14
f 28/24/28 31/47/31 32/26/32 27/29/27
f 31/38/31 16/22/16 15/42/15 32/44/32
f 25/40/25 33/25/33 34/37/34 26/46/26
f 33/25/33 28/24/28 27/29/27 34/37/34
f 44/52/44 38/53/38 40/54/40 45/55/45
f 46/56/46 42/57/42 36/58/36 43/59/43
f 41/60/41 46/56/46 43/59/43 35/61/35
f 37/62/37 44/52/44 45/55/45 39/63/39
f 35/64/35 37/65/37 39/66/39 41/67/41
f 47/68/47 55/69/55 64/70/64
f 40/54/40 38/53/38 48/71/48 49/72/49
f 36/58/36 42/57/42 50/73/50 47/68/47
f 54/74/54 62/75/62 67/76/67
f 66/77/66 57/78/57 53/79/53 61/80/61
f 57/78/57 56/81/56 52/82/52 53/79/53
f 55/83/55 58/84/58 54/74/54 51/85/51
f 48/71/48 63/86/63 56/87/56
f 53/79/53 52/82/52 68/88/68
f 50/73/50 65/89/65 58/90/58
f 47/68/47 50/73/50 58/90/58 55/69/55
f 59/91/59 51/85/51 67/76/67
f 49/72/49 48/71/48 56/87/56 57/92/57
f 49/72/49 57/92/57 66/93/66
f 55/83/55 51/85/51 59/91/59 64/94/64
f 52/82/52 60/95/60 68/88/68
f 58/84/58 65/96/65 62/75/62 54/74/54
f 61/80/61 53/79/53 68/88/68
f 51/85/51 54/74/54 67/76/67
f 56/81/56 63/97/63 60/95/60 52/82/52
f 44/52/44 37/62/37 35/61/35 43/59/43
f 46/98/46 41/99/41 39/63/39 45/55/45
f 38/53/38 44/52/44 43/59/43 36/58/36
f 42/100/42 46/98/46 45/55/45 40/54/40
f 36/58/36 47/68/47 48/71/48 38/53/38
f 40/54/40 49/72/49 50/101/50 42/100/42
f 60/95/60 63/97/63 64/94/64 59/91/59
f 47/68/47 64/70/64 63/86/63 48/71/48
f 62/75/62 65/96/65 66/77/66 61/80/61
f 65/102/65 50/101/50 49/72/49 66/93/66
f 59/91/59 67/76/67 68/88/68 60/95/60
f 67/76/67 62/75/62 61/80/61 68/88/68
f 76/103/76 80/104/80 77/105/77 73/106/73
f 73/106/73 77/105/77 78/107/78 74/108/74
f 72/109/72 76/103/76 73/106/73 69/110/69
f 70/111/70 74/108/74 75/112/75 71/113/71
f 69/114/69 70/115/70 71/116/71 72/117/72
f 77/105/77 83/118/83 90/119/90
f 81/120/81 88/121/88 93/122/93
f 92/123/92 84/124/84 82/125/82 87/126/87
f 99/127/99 102/128/102 113/129/113 105/130/105
f 85/131/85 81/120/81 93/122/93
f 79/132/79 84/133/84 92/134/92
f 83/135/83 81/120/81 85/131/85 90/136/90
f 82/125/82 86/137/86 94/138/94
f 83/135/83 91/139/91 88/121/88 81/120/81
f 87/126/87 82/125/82 94/138/94
f 84/124/84 89/140/89 86/137/86 82/125/82
f 74/108/74 70/111/70 69/110/69 73/106/73
f 76/103/76 72/109/72 71/141/71 75/142/75
f 75/142/75 79/132/79 80/104/80 76/103/76
f 79/143/79 78/107/78 89/144/89 84/145/84
f 86/137/86 89/140/89 90/136/90 85/131/85
f 77/105/77 90/119/90 89/144/89 78/107/78
f 88/121/88 91/139/91 92/123/92 87/126/87
f 91/146/91 80/104/80 79/132/79 92/134/92
f 85/131/85 93/122/93 94/138/94 86/137/86
f 93/122/93 88/121/88 87/126/87 94/138/94
f 96/147/96 100/148/100 101/149/101 97/150/97
f 95/151/95 99/127/99 100/148/100 96/147/96
f 95/152/95 96/153/96 97/154/97 98/155/98
f 99/127/99 105/130/105 112/156/112
f 103/157/103 110/158/110 115/159/115
f 114/160/114 106/161/106 104/162/104 109/163/109
f 101/149/101 100/148/100 111/164/111 106/165/106
f 107/166/107 103/157/103 115/159/115
f 101/149/101 106/165/106 114/167/114
f 105/168/105 103/157/103 107/166/107 112/169/112
f 104/162/104 108/170/108 116/171/116
f 105/168/105 113/172/113 110/158/110 103/157/103
f 109/163/109 104/162/104 116/171/116
f 106/161/106 111/173/111 108/170/108 104/162/104
f 97/150/97 101/149/101 102/174/102 98/175/98
f 74/108/74 78/107/78 79/143/79 75/112/75
f 98/176/98 102/128/102 99/127/99 95/151/95
f 108/170/108 111/173/111 112/169/112 107/166/107
f 99/127/99 112/156/112 111/164/111 100/148/100
f 110/158/110 113/172/113 114/160/114 109/163/109
f 113/177/113 102/174/102 101/149/101 114/167/114
f 107/166/107 115/159/115 116/171/116 108/170/108
f 115/159/115 110/158/110 109/163/109 116/171/116
f 77/105/77 80/104/80 91/146/91 83/118/83
