# Blender 4.2.2 LTS
# www.blender.org
mtllib small_rock.mtl
o Icosphere
v 1.074425 -0.006533 0.092356
v 0.961287 -0.065826 -0.119279
v 0.981394 0.153151 -0.026752
v 1.048084 -0.124818 -0.063216
v 0.922543 -0.114294 -0.026255
v 1.073475 -0.139115 0.036769
v 1.129326 -0.011262 -0.067357
v 0.996158 -0.002245 0.121259
v 0.955498 -0.124144 0.075855
v 0.910749 0.031886 -0.099409
v 0.873985 0.044613 0.038108
v 1.015011 0.094904 -0.124498
v 1.086206 0.097859 0.067121
v 0.947470 0.091791 0.087464
vn 0.7033 -0.0989 0.7040
vn -0.2588 -0.3887 -0.8843
vn -0.1484 0.9777 -0.1489
vn 0.3294 -0.7512 -0.5720
vn -0.7151 -0.6719 -0.1926
vn 0.5970 -0.7188 0.3563
vn 0.9112 -0.0076 -0.4120
vn -0.0882 -0.0350 0.9955
vn -0.4071 -0.6473 0.6444
vn -0.7587 0.1671 -0.6297
vn -0.9399 0.1807 0.2896
vn 0.1874 0.4819 -0.8560
vn 0.7005 0.5256 0.4827
vn -0.3993 0.5079 0.7633
vt 0.181819 0.000000
vt 0.227273 0.078731
vt 0.136365 0.078731
vt 0.844010 0.107472
vt 0.937897 0.105425
vt 0.845595 0.267440
vt 0.633137 0.163051
vt 0.709149 0.267239
vt 0.801644 0.443738
vt 0.369483 0.325046
vt 0.572895 0.314921
vt 0.463882 0.456212
vt 0.646962 0.433451
vt 0.894457 0.340267
vt 0.048332 0.329069
vt 0.273534 0.324885
vt 0.090910 0.472382
vt 0.432618 0.236191
vt 0.263408 0.324885
vt 0.045455 0.236191
vt 0.133431 0.228040
vt 0.232825 0.226575
vt 0.326347 0.095709
vt 0.452253 0.109722
vt 0.565494 0.034709
vt 0.363637 0.000000
s 1
usemtl Material.011
f 5/1/5 6/2/6 9/3/9
f 5/4/5 9/5/9 11/6/11
f 2/7/2 5/4/5 10/8/10
f 5/4/5 11/6/11 10/8/10
f 10/8/10 11/6/11 3/9/3
f 13/10/13 12/11/12 3/12/3
f 12/11/12 10/8/10 3/13/3
f 3/9/3 11/6/11 14/14/14
f 14/15/14 13/16/13 3/17/3
f 7/18/7 12/11/12 13/19/13
f 2/7/2 10/8/10 12/11/12
f 9/20/9 8/21/8 14/15/14
f 8/21/8 13/16/13 14/15/14
f 1/22/1 6/23/6 13/16/13
f 7/18/7 2/7/2 12/11/12
f 7/18/7 4/24/4 2/7/2
f 11/6/11 9/5/9 14/14/14
f 8/21/8 1/22/1 13/16/13
f 6/23/6 7/18/7 13/19/13
f 6/23/6 4/24/4 7/18/7
f 5/25/5 2/7/2 4/24/4
f 6/23/6 5/26/5 4/24/4
f 9/3/9 6/2/6 8/21/8
f 6/2/6 1/22/1 8/21/8
