# Blender 4.2.2 LTS
# www.blender.org
mtllib tree.mtl
o BRAK
v -0.042313 0.000330 -0.148817
v -0.152640 0.000659 -0.042275
v -0.115535 0.000330 0.106543
v 0.031895 -0.000330 0.148817
v 0.142222 -0.000659 0.042275
v 0.105118 -0.000330 -0.106543
v -0.030238 0.301512 -0.153667
v -0.136734 0.315410 -0.050772
v -0.100493 0.322184 0.093320
v 0.042244 0.315061 0.134517
v 0.148740 0.301163 0.031622
v 0.112499 0.294389 -0.112470
v -0.007501 0.537136 -0.170405
v -0.110017 0.558239 -0.071366
v -0.074508 0.569381 0.067839
v 0.063516 0.559421 0.108007
v 0.166031 0.538318 0.008969
v 0.130523 0.527176 -0.130237
v 0.013489 0.743971 -0.187822
v -0.086170 0.759143 -0.091459
v -0.051918 0.768498 0.043400
v 0.081992 0.762681 0.081897
v 0.181650 0.747509 -0.014466
v 0.147399 0.738154 -0.149325
v 0.019142 0.955646 -0.193667
v -0.077482 0.952037 -0.099719
v -0.044485 0.953170 0.030991
v 0.085135 0.957912 0.067754
v 0.181758 0.961521 -0.026194
v 0.148762 0.960388 -0.156904
v -0.004700 1.200748 -0.174934
v -0.095899 1.176001 -0.085400
v -0.063061 1.167240 0.040261
v 0.060976 1.183225 0.076390
v 0.152175 1.207972 -0.013144
v 0.119337 1.216733 -0.138805
v -0.069924 1.505540 -0.120505
v -0.155394 1.469379 -0.035966
v -0.122794 1.456138 0.084539
v -0.004724 1.479059 0.120505
v 0.080746 1.515220 0.035967
v 0.048146 1.528460 -0.084538
v -0.138815 1.807910 -0.062121
v -0.213719 1.788347 0.010653
v -0.188707 1.788189 0.113919
v -0.088791 1.807595 0.144410
v -0.013888 1.827158 0.071636
v -0.038900 1.827316 -0.031630
v -0.179051 2.076195 -0.047510
v -0.242508 2.073340 0.011889
v -0.223406 2.081407 0.096347
v -0.140847 2.092329 0.121407
v -0.077390 2.095184 0.062007
v -0.096492 2.087117 -0.022451
v -0.187228 2.341585 -0.056562
v -0.237037 2.347914 -0.011176
v -0.222273 2.355324 0.054458
v -0.157701 2.356406 0.074708
v -0.107892 2.350077 0.029322
v -0.122655 2.342667 -0.036312
v -0.158315 2.626984 -0.068066
v -0.193690 2.634661 -0.035943
v -0.183427 2.636799 0.011305
v -0.137790 2.631260 0.026429
v -0.102415 2.623584 -0.005694
v -0.112677 2.621446 -0.052941
v -0.088956 2.953727 -0.059578
v -0.110218 2.958477 -0.040269
v -0.104678 2.956561 -0.011754
v -0.077877 2.949895 -0.002548
v -0.056615 2.945145 -0.021858
v -0.062155 2.947061 -0.050373
v 0.024740 3.344230 0.000000
v -0.064061 1.630312 -0.008309
v -0.001155 1.630312 -0.001271
v 0.033498 1.583656 -0.026352
v 0.005245 1.537001 -0.058471
v -0.057661 1.537000 -0.065509
v -0.092313 1.583656 -0.040428
v -0.047203 1.716586 -0.116504
v 0.027317 1.708538 -0.095898
v 0.069273 1.649475 -0.124072
v 0.036709 1.598459 -0.172853
v -0.037811 1.606506 -0.193459
v -0.079767 1.665570 -0.165285
v 0.055344 1.831330 -0.256690
v 0.104646 1.807519 -0.221280
v 0.138740 1.756399 -0.243092
v 0.123532 1.729089 -0.300314
v 0.074230 1.752899 -0.335724
v 0.040136 1.804020 -0.313912
v 0.187693 1.930863 -0.307694
v 0.217397 1.902492 -0.274722
v 0.248254 1.864134 -0.293455
v 0.249406 1.854147 -0.345159
v 0.219702 1.882518 -0.378131
v 0.188845 1.920876 -0.359398
v 0.319656 2.045032 -0.312971
v 0.343322 2.024646 -0.287759
v 0.372884 2.001626 -0.302166
v 0.378779 1.998993 -0.341785
v 0.355113 2.019379 -0.366997
v 0.325551 2.042399 -0.352590
v 0.424224 2.205014 -0.310573
v 0.444437 2.198189 -0.293045
v 0.468784 2.189511 -0.302754
v 0.472919 2.187657 -0.329990
v 0.452706 2.194482 -0.347518
v 0.428359 2.203160 -0.337810
v 0.469788 2.443761 -0.338386
v 0.481708 2.445667 -0.329349
v 0.495661 2.444982 -0.335027
v 0.497694 2.442392 -0.349743
v 0.485773 2.440486 -0.358781
v 0.471820 2.441171 -0.353102
v 0.466984 2.602231 -0.379700
v -0.005209 0.000000 0.000000
v -0.013753 1.387551 -0.004703
v -0.024008 1.387551 -0.067165
v -0.035816 1.333153 -0.097299
v -0.037368 1.278755 -0.064971
v -0.027112 1.278755 -0.002510
v -0.015304 1.333153 0.027625
v -0.186600 1.426829 0.028303
v -0.196575 1.426410 -0.048896
v -0.214015 1.359977 -0.085527
v -0.221480 1.293963 -0.044959
v -0.211505 1.294382 0.032240
v -0.194065 1.360815 0.068871
v -0.409086 1.479233 0.040904
v -0.410719 1.476670 -0.024552
v -0.436352 1.424422 -0.054665
v -0.460352 1.374737 -0.019322
v -0.458719 1.377300 0.046134
v -0.433086 1.429548 0.076247
v -0.506856 1.543642 0.026407
v -0.502584 1.536887 -0.026200
v -0.538753 1.507891 -0.052325
v -0.579193 1.485650 -0.025842
v -0.583465 1.492404 0.026766
v -0.547296 1.521400 0.052890
v -0.551458 1.639859 0.001014
v -0.547890 1.634421 -0.039361
v -0.580587 1.623860 -0.061539
v -0.616851 1.618737 -0.043342
v -0.620418 1.624175 -0.002967
v -0.587722 1.634736 0.019211
v -0.590242 1.783179 -0.019212
v -0.588556 1.783053 -0.047742
v -0.611621 1.776738 -0.063392
v -0.636372 1.770548 -0.050513
v -0.638058 1.770673 -0.021983
v -0.614993 1.776989 -0.006332
v -0.673258 1.968613 -0.013092
v -0.673280 1.971078 -0.029169
v -0.685703 1.965727 -0.038200
v -0.698105 1.957910 -0.031154
v -0.698083 1.955445 -0.015077
v -0.685659 1.960796 -0.006046
v -0.747991 2.076808 0.005733
v -0.748392 2.078955 -0.004135
v -0.755727 2.075020 -0.009868
v -0.762660 2.068938 -0.005733
v -0.762258 2.066792 0.004136
v -0.754924 2.070727 0.009868
v -0.150059 2.379768 -0.030840
v -0.193753 2.379768 -0.028856
v -0.214494 2.350778 -0.003509
v -0.191542 2.321788 0.019854
v -0.147848 2.321788 0.017871
v -0.127107 2.350778 -0.007477
v -0.153903 2.454854 0.049788
v -0.206970 2.447064 0.042385
v -0.231925 2.405687 0.066813
v -0.203813 2.372099 0.098643
v -0.150746 2.379889 0.106046
v -0.125791 2.421266 0.081618
v -0.234128 2.545748 0.198340
v -0.272350 2.529428 0.177833
v -0.289479 2.488183 0.190215
v -0.268385 2.463259 0.223103
v -0.230163 2.479579 0.243610
v -0.213034 2.520823 0.231228
v -0.351867 2.611133 0.308820
v -0.379072 2.594473 0.287186
v -0.392893 2.559829 0.296907
v -0.379508 2.541845 0.328262
v -0.352302 2.558505 0.349896
v -0.338482 2.593149 0.340175
v -0.466395 2.685156 0.388554
v -0.489476 2.673055 0.372240
v -0.505616 2.649477 0.383592
v -0.498675 2.638000 0.411258
v -0.475594 2.650101 0.427572
v -0.459454 2.673679 0.416220
v -0.544853 2.800429 0.444655
v -0.565399 2.797217 0.434956
v -0.582732 2.788701 0.447349
v -0.579518 2.783397 0.469441
v -0.558972 2.786609 0.479140
v -0.541640 2.795125 0.466747
v -0.553251 2.998420 0.482747
v -0.567046 3.001503 0.477305
v -0.578818 3.002721 0.486757
v -0.576796 3.000856 0.501652
v -0.563001 2.997773 0.507094
v -0.551229 2.996554 0.497642
v -0.525258 3.142566 0.502226
v 0.068238 1.392660 -0.011675
v 0.011319 1.420235 -0.014223
v -0.038476 1.392660 0.013466
v -0.031352 1.337509 0.043704
v 0.025567 1.309934 0.046252
v 0.075362 1.337509 0.018562
v 0.106133 1.447382 0.076370
v 0.038389 1.485385 0.081204
v -0.022580 1.451946 0.116152
v -0.015806 1.380504 0.146267
v 0.051937 1.342500 0.141433
v 0.112907 1.375939 0.106484
v 0.164046 1.499595 0.246940
v 0.111913 1.535835 0.262945
v 0.061760 1.508646 0.295081
v 0.063739 1.445218 0.311212
v 0.115872 1.408978 0.295207
v 0.166025 1.436167 0.263071
v 0.230266 1.525226 0.385478
v 0.190714 1.555850 0.403382
v 0.152313 1.534765 0.433441
v 0.153463 1.483058 0.445594
v 0.193015 1.452435 0.427690
v 0.231416 1.473519 0.397631
v 0.291713 1.554189 0.491739
v 0.259759 1.576737 0.503297
v 0.233753 1.562427 0.531261
v 0.239702 1.525569 0.547668
v 0.271656 1.503021 0.536110
v 0.297662 1.517331 0.508145
v 0.337266 1.616515 0.567368
v 0.310809 1.626561 0.570110
v 0.295595 1.620394 0.593325
v 0.306838 1.604180 0.613797
v 0.333295 1.594134 0.611055
v 0.348509 1.600301 0.587841
v 0.355630 1.747560 0.613345
v 0.339556 1.748142 0.613333
v 0.331452 1.746859 0.627167
v 0.339422 1.744995 0.641014
v 0.355496 1.744413 0.641025
v 0.363600 1.745696 0.627191
v 0.344509 1.848393 0.632310
v -0.072685 1.987297 0.039640
v -0.076915 1.967052 0.057932
v -0.088824 1.972645 0.082206
v -0.096505 1.998482 0.088188
v -0.092276 2.018728 0.069896
v -0.162076 2.070950 0.032820
v -0.129381 2.070950 0.003766
v -0.124855 2.037511 -0.024063
v -0.153023 2.004072 -0.022838
v -0.185718 2.004072 0.006216
v -0.190244 2.037511 0.034045
v -0.222313 2.127795 -0.035217
v -0.178938 2.125294 -0.067307
v -0.171292 2.082286 -0.099076
v -0.207020 2.041779 -0.098755
v -0.250395 2.044279 -0.066664
v -0.258042 2.087287 -0.034895
v -0.299388 2.199756 -0.181716
v -0.258520 2.193582 -0.201800
v -0.250182 2.155163 -0.225593
v -0.282711 2.122918 -0.229302
v -0.323579 2.129092 -0.209218
v -0.331918 2.167511 -0.185425
v -0.333476 2.259939 -0.306965
v -0.298245 2.251942 -0.318395
v -0.291666 2.221029 -0.339298
v -0.320319 2.198114 -0.348771
v -0.355550 2.206111 -0.337341
v -0.362128 2.237023 -0.316438
v -0.338934 2.325564 -0.401329
v -0.311040 2.318117 -0.408840
v -0.306235 2.298578 -0.430865
v -0.329324 2.286486 -0.445378
v -0.357217 2.293933 -0.437866
v -0.362022 2.313472 -0.415842
v -0.328824 2.416824 -0.460841
v -0.308337 2.412851 -0.467045
v -0.304176 2.406529 -0.487458
v -0.320502 2.404180 -0.501668
v -0.340989 2.408153 -0.495465
v -0.345150 2.414475 -0.475051
v -0.313508 2.559560 -0.477547
v -0.300425 2.559047 -0.481613
v -0.297337 2.560115 -0.494928
v -0.307332 2.561697 -0.504178
v -0.320416 2.562210 -0.500113
v -0.323504 2.561142 -0.486797
v -0.305232 2.658488 -0.474210
v -0.080366 2.013135 0.045622
v 0.025641 2.067543 0.115955
v 0.028423 2.058461 0.127668
v 0.036288 2.045753 0.125654
v 0.041371 2.042128 0.111928
v 0.038590 2.051209 0.100215
v 0.030725 2.063917 0.102229
v -0.138625 1.638814 0.068881
v -0.143212 1.619966 0.049233
v -0.127123 1.597590 0.047542
v -0.106448 1.594064 0.065498
v -0.101861 1.612913 0.085146
v -0.117949 1.635288 0.086837
v -0.226837 1.596488 0.162880
v -0.232861 1.584345 0.156271
v -0.226610 1.570773 0.158306
v -0.214336 1.569344 0.166949
v -0.208312 1.581487 0.173558
v -0.214563 1.595059 0.171523
v 0.030465 1.315361 -0.127605
v 0.053655 1.292899 -0.131616
v 0.045519 1.261663 -0.135673
v 0.014192 1.252887 -0.135717
v -0.008999 1.275348 -0.131706
v -0.000862 1.306585 -0.127650
v 0.015675 1.366824 -0.278237
v 0.027430 1.356608 -0.286791
v 0.022344 1.341004 -0.293598
v 0.005502 1.335616 -0.291852
v -0.006252 1.345831 -0.283298
v -0.001166 1.361436 -0.276491
v -0.505264 2.019358 -0.403175
v -1.064887 2.093384 0.394463
v -0.950022 2.755647 -0.680772
v -1.470300 2.906405 0.034572
v -0.423186 2.345008 -0.100921
v -1.009811 1.690501 0.135658
v -0.886456 2.970237 0.355819
v -1.476978 2.315731 0.627135
v -0.518443 1.880629 -0.394227
v -1.005417 2.234732 0.393586
v -0.987134 2.532511 -0.817446
v -1.392791 2.950816 -0.178753
v -0.301957 2.042469 -0.075940
v -1.264298 2.070274 0.032490
v -0.330557 2.969924 -0.096461
v -1.244640 3.046690 0.036564
v -0.468283 2.397985 -0.194389
v -0.967788 1.664700 0.154597
v -0.375439 2.686783 0.707664
v -1.032658 2.071175 1.023989
v -0.593660 2.045953 -0.408331
v -0.839337 1.989556 0.443069
v -0.328184 2.984020 -0.356949
v -0.644056 2.883019 0.590765
v -0.631946 1.767841 0.358992
v -0.938206 2.344901 -0.367705
v -0.890054 2.284195 1.016034
v -1.275370 2.818181 0.370204
v -0.925284 1.665643 -0.294606
v -0.600823 2.390817 0.279003
v -1.164349 2.186885 -0.912391
v -0.885017 3.026766 -0.530169
v -0.891005 1.698314 0.310755
v -0.675251 2.414428 -0.354205
v -1.840016 1.790999 0.097050
v -1.628159 2.507113 -0.533173
v -0.562041 2.222659 0.364698
v -1.004214 1.890083 -0.408148
v -1.374598 2.709228 0.605296
v -1.812874 2.376652 -0.202288
v -0.381276 3.105101 0.225280
v -0.631258 3.298340 0.668174
v -0.312325 3.612913 0.042636
v -0.628239 3.666779 0.537444
v -0.248430 3.238929 0.417374
v -0.763214 3.045019 0.553107
v -0.310171 3.599200 0.675682
v -0.771499 3.634305 0.819929
v -0.452421 3.058006 0.222131
v -0.564009 3.345435 0.706060
v -0.403788 3.519649 -0.061606
v -0.515376 3.807079 0.422323
v -0.289415 3.047364 0.443504
v -0.727015 3.356076 0.484688
v -0.052961 3.427061 0.423875
v -0.418442 3.801396 0.525738
v -0.302745 3.190207 0.426245
v -0.759185 3.137475 0.523551
v -0.161339 3.309891 0.871571
v -0.614236 3.139760 1.043715
v -0.462710 3.079585 0.265638
v -0.595677 3.130698 0.758995
v -0.006507 3.496247 0.309514
v -0.176041 3.581372 0.819414
v -0.534346 3.014567 0.677386
v -0.485981 3.388874 0.285542
v -0.523840 3.407531 1.018843
v -0.539325 3.647941 0.699088
v -0.693051 3.069738 0.329381
v -0.359325 3.241426 0.648311
v -0.685061 3.322592 0.004342
v -0.250752 3.691557 0.230966
v -0.671083 3.063195 0.612989
v -0.341451 3.340245 0.280465
v -1.080349 3.241502 0.597468
v -0.813489 3.540158 0.238156
v -0.364228 3.204059 0.711016
v -0.656099 3.199383 0.251912
v -0.625693 3.533114 0.882647
v -0.886612 3.671357 0.393651
v 0.157702 2.977745 -0.281617
v 0.035065 3.554782 0.302447
v 0.571530 3.532448 -0.778309
v 0.244738 4.060501 -0.121142
v 0.467175 3.106964 -0.135215
v -0.347738 3.346497 0.165634
v 0.662288 3.808093 0.080452
v 0.104461 4.130011 0.349977
v 0.032581 2.965909 -0.302692
v 0.164082 3.566618 0.288784
v 0.360840 3.441444 -0.861825
v 0.500133 4.042152 -0.339823
v 0.212124 2.899890 -0.025249
v -0.202398 3.565571 0.056533
v 1.014328 3.255683 -0.185045
v 0.439609 3.974701 -0.128927
v 0.356443 3.155317 -0.160642
v -0.271050 3.388105 0.115514
v 0.708847 3.404258 0.493420
v 0.074868 3.639982 0.859708
v 0.036485 3.057850 -0.351048
v 0.058145 3.466410 0.372029
v 0.779187 3.289740 -0.368980
v 0.719840 3.639500 0.329663
v -0.025582 3.103309 0.336081
v 0.222245 3.429217 -0.349988
v 0.319508 3.736389 0.778936
v 0.381487 4.021672 0.074233
v -0.343123 3.118083 -0.110527
v 0.465846 3.358391 0.149343
v -0.152620 3.426095 -0.841154
v 0.539455 3.655391 -0.554079
v -0.187112 3.257530 0.275036
v 0.255853 3.274702 -0.301236
v -0.524400 3.952692 -0.028491
v 0.050383 3.970158 -0.627207
v 0.340746 3.240746 0.313036
v -0.246879 3.244171 -0.268588
v 0.220574 4.002162 0.390844
v -0.275116 4.025043 -0.247090
v 0.585886 2.481596 -0.525726
v 0.445745 2.572656 -0.110648
v 0.593347 2.926503 -0.671207
v 0.512502 3.035608 -0.311895
v 0.798307 2.518493 -0.370962
v 0.321082 2.450650 -0.254104
v 0.684595 2.999125 -0.179804
v 0.325342 2.878942 -0.038705
v 0.528651 2.435533 -0.525766
v 0.444398 2.661890 -0.160309
v 0.653121 2.774415 -0.775961
v 0.554943 3.036453 -0.366450
v 0.760943 2.343852 -0.347140
v 0.362343 2.625292 -0.312663
v 0.915187 2.842194 -0.374629
v 0.517726 3.068603 -0.274994
v 0.694918 2.626262 -0.438874
v 0.282029 2.471160 -0.281938
v 0.820280 2.735374 -0.001219
v 0.407391 2.580271 0.155718
v 0.636974 2.445769 -0.544961
v 0.427862 2.572010 -0.135519
v 0.881250 2.846252 -0.493222
v 0.763925 2.892849 -0.078184
v 0.494461 2.381704 -0.196505
v 0.585637 2.655192 -0.525884
v 0.487316 2.709547 0.172406
v 0.479237 3.043561 -0.190134
v 0.392963 2.364248 -0.451181
v 0.730323 2.604895 -0.208622
v 0.346374 2.746953 -0.823507
v 0.800087 2.931136 -0.575639
v 0.409438 2.358284 -0.160958
v 0.709951 2.610860 -0.464107
v 0.037977 2.667895 -0.271230
v 0.338490 2.920471 -0.574378
v 0.626736 2.557039 -0.171714
v 0.426651 2.482440 -0.521806
v 0.482588 2.916985 0.025959
v 0.216501 2.912721 -0.392588
v 0.452672 1.751131 0.419105
v 0.147903 1.860670 0.955699
v 0.460495 2.217646 0.266559
v 0.244141 2.358397 0.720841
v 0.569980 1.878979 0.591415
v 0.017185 1.732739 0.805277
v 0.521864 2.252969 0.910291
v 0.017567 2.181831 1.067561
v 0.318859 1.630926 0.529311
v 0.296331 1.940182 0.873429
v 0.369246 2.072227 0.223340
v 0.262403 2.346992 0.687475
v 0.478407 1.620754 0.707723
v 0.138061 1.940209 0.681115
v 0.777108 2.046450 0.713758
v 0.358962 2.341559 0.751597
v 0.559017 1.902824 0.581335
v 0.025613 1.706894 0.817449
v 0.626671 1.954312 1.161638
v 0.261423 1.854600 1.170066
v 0.348418 1.727621 0.500295
v 0.186354 1.808995 0.987726
v 0.762380 2.133497 0.453188
v 0.631375 2.182358 0.959542
v 0.352721 1.646389 0.800739
v 0.294399 1.947215 0.521985
v 0.254484 1.965050 1.256179
v 0.336758 2.340388 0.807419
v 0.184059 1.691227 0.498875
v 0.442215 1.894475 0.889392
v 0.193547 2.029376 0.178024
v 0.515367 2.236560 0.504550
v 0.220754 1.678759 0.784014
v 0.472131 1.964255 0.473741
v -0.184323 1.951859 0.745014
v 0.067054 2.237355 0.434742
v 0.491421 1.830238 0.826733
v 0.127881 1.766073 0.524574
v 0.250299 2.230622 1.017627
v -0.092474 2.217251 0.660067
v 0.048108 1.419307 0.548978
v 0.456322 1.694270 0.717004
v 0.108342 1.620600 0.073237
v 0.512661 1.895562 0.276000
v 0.256063 1.363806 0.493611
v 0.240574 1.749772 0.841844
v 0.712449 1.691666 0.190532
v 0.665311 1.963601 0.588827
v 0.013753 1.454849 0.613923
v 0.486780 1.658728 0.686796
v -0.034000 1.655837 0.136639
v 0.464308 1.937044 0.118027
v 0.198201 1.302505 0.626568
v 0.370879 1.866673 0.562334
v 0.437988 1.263184 0.166750
v 0.568980 1.863538 0.113209
v 0.254457 1.384930 0.472674
v 0.242180 1.728647 0.862781
v 0.835518 1.449826 0.431696
v 0.819474 1.761117 0.810916
v 0.033978 1.480518 0.513934
v 0.466555 1.633059 0.786785
v 0.310998 1.296885 0.151378
v 0.801219 1.574520 0.254612
v 0.335581 1.474521 0.898458
v 0.164953 1.639056 0.402261
v 0.813331 1.640166 0.776834
v 0.659467 1.900448 0.238060
v 0.139673 1.689152 0.673460
v 0.467192 1.462830 0.520849
v -0.076255 1.810917 0.249767
v 0.324693 1.678959 0.040259
v 0.304395 1.615224 0.914831
v 0.196138 1.498353 0.385888
v 0.312075 2.151553 0.732162
v 0.151544 2.004907 0.310069
v 0.474511 1.425613 0.664559
v 0.120129 1.727297 0.539878
v 0.767328 1.934177 0.397512
v 0.297228 2.099538 0.429295
v 0.359279 1.441401 0.720566
v 0.017534 1.682890 0.479013
v 0.293937 1.485061 1.084322
v -0.287405 1.643137 1.007019
v 0.287953 1.377993 0.636863
v 0.184002 1.826949 0.500148
v -0.172515 1.338567 0.802339
v -0.383677 1.793419 0.666865
v 0.480271 1.586002 0.586343
v -0.008316 1.618940 0.550668
v 0.278239 1.525182 1.224069
v -0.219640 1.604972 1.078286
v 0.373552 1.411251 0.520989
v 0.098403 1.793691 0.616022
v 0.147124 1.130981 0.816959
v -0.285495 1.502249 1.019125
v 0.279906 1.387575 0.662039
v 0.121886 1.771796 0.533764
v -0.282991 1.160759 0.521168
v -0.316376 1.613955 0.302489
v 0.341992 1.487248 0.809092
v -0.068730 1.603148 0.511852
v 0.233415 1.176859 0.932375
v -0.338068 1.225216 0.707303
v 0.207259 1.597105 0.341955
v 0.148160 1.557204 0.919975
v -0.273120 1.538111 0.361667
v -0.371223 1.544632 0.943632
v 0.329610 1.723140 0.611470
v 0.073285 1.418013 0.605329
v 0.371447 1.720239 1.129850
v -0.006718 1.364355 1.158379
v 0.110935 1.673316 0.435650
v 0.162327 1.417081 0.885294
v 0.024500 2.105957 0.647587
v 0.017734 1.842636 1.110036
v 0.096091 1.440413 0.433400
v 0.375864 1.764529 0.703611
v -0.434801 1.626055 0.731348
v -0.116371 1.948530 0.956525
v 0.382736 1.351040 0.474547
v 0.355318 1.652750 0.819925
v 0.815662 1.172671 0.700901
v 0.791656 1.517967 0.999952
v 0.335520 1.215409 0.627086
v 0.382973 1.789730 0.610163
v 0.445079 1.156536 1.132068
v 0.413508 1.671654 1.232864
v 0.452673 1.516960 0.329272
v 0.380012 1.582934 0.810245
v 0.850676 1.264197 0.538973
v 0.846068 1.470493 0.931402
v 0.312874 1.373474 0.434136
v 0.434869 1.653834 0.840448
v 0.561296 1.034042 0.718048
v 0.768233 1.386988 0.989292
v 0.472313 1.314060 0.572639
v 0.276275 1.728711 0.717017
v 0.064493 1.132966 1.092767
v -0.018529 1.644452 1.137097
v 0.452114 1.374865 0.457673
v 0.294844 1.624981 0.806440
v 0.656363 1.057004 0.594381
v 0.417263 1.207072 1.033007
v 0.073703 1.551221 0.661192
v 0.655611 1.498705 0.550615
v 0.059591 1.511713 1.214399
v 0.559448 1.355205 1.177508
v 0.379814 1.651799 0.480507
v 0.263551 1.294136 0.839723
v 0.863036 1.470991 0.492876
v 0.856439 1.246406 0.713774
v 0.243179 1.719306 0.609428
v 0.485765 1.275934 0.670771
v 0.582462 2.033592 0.800433
v 0.932686 1.694873 0.686356
v 0.257433 1.424268 0.747386
v 0.507515 1.584961 0.516787
v 0.507131 1.568115 1.144786
v 0.817156 1.819473 0.859005
v 0.220651 2.988075 -0.353435
v -0.241678 3.027082 0.372286
v 0.789282 3.112389 0.093035
v 0.405277 3.089446 0.738712
v 0.195508 2.719483 -0.108592
v -0.271871 3.312472 0.092036
v 0.377919 2.544878 0.697724
v -0.148692 3.154665 0.897683
v 0.034641 3.073393 -0.353234
v -0.159323 2.932553 0.407699
v 0.740006 3.292783 -0.091918
v 0.586611 3.104110 0.729091
v 0.027025 2.724422 -0.274119
v -0.048052 3.290735 0.292970
v 0.575721 2.398168 0.120688
v 0.495428 2.906884 0.675931
v 0.225507 2.743318 -0.085231
v -0.368504 3.215827 0.109302
v -0.073744 2.206439 0.456120
v -0.664999 2.770149 0.603735
v 0.280006 3.070325 -0.299620
v -0.317417 2.886970 0.302617
v 0.688222 2.544035 -0.012024
v 0.167743 2.347337 0.653719
v -0.432672 2.832646 -0.026115
v 0.379703 3.128367 0.089265
v -0.455500 2.642478 0.756072
v 0.332726 2.884055 0.846276
v -0.079012 3.351650 -0.195629
v 0.054089 2.663508 0.249217
v 0.723471 3.561534 -0.144633
v 0.771536 2.922838 0.243382
v -0.460478 3.030869 0.097449
v 0.313586 2.928275 -0.038642
v -0.230953 3.763567 0.482416
v 0.576328 3.575948 0.435096
v -0.180057 2.624562 0.175234
v 0.029268 3.334583 -0.081690
v -0.032817 2.847675 0.911779
v 0.271845 3.614685 0.635656
v -0.359367 3.204053 0.083211
v 0.256531 2.676703 -0.094872
v -0.460684 3.431434 -0.628767
v 0.288385 2.971277 -0.905229
v -0.433085 2.932096 -0.168765
v 0.259605 2.951464 0.145982
v -0.127570 2.580025 -0.892134
v 0.631867 2.596587 -0.531528
v -0.334803 3.162790 0.216677
v 0.118465 2.664883 -0.184065
v -0.423715 3.600179 -0.427327
v 0.033450 3.102273 -0.862807
v -0.459578 2.827829 0.166650
v 0.247137 2.999843 -0.168776
v -0.744306 2.742481 -0.591529
v -0.041487 2.914495 -0.892218
v -0.415229 2.957265 -0.204934
v 0.312393 2.923491 0.193272
v -0.322068 2.175779 -0.404365
v 0.393048 2.198619 -0.111075
v -0.360407 3.205914 0.032314
v 0.151862 2.621759 -0.069176
v -0.777822 2.945843 -0.577674
v -0.265553 2.361688 -0.679164
v -0.020066 2.630318 0.238504
v -0.093408 3.238096 -0.291988
v 0.295630 2.130439 -0.297350
v 0.215546 2.725874 -0.904403
v 0.094297 3.223537 0.227748
v -0.193237 2.657218 -0.274147
v -0.040499 3.821517 -0.332067
v -0.449370 3.206889 -0.735458
v 0.199918 2.748518 0.231919
v -0.370922 3.079149 -0.253078
v 0.855619 3.127983 -0.065128
v 0.192465 3.503551 -0.594304
v -0.160099 2.544633 -0.067962
v -0.036873 3.293610 0.080945
v 0.323923 2.541754 -0.648748
v 0.466516 3.301301 -0.519469
v 0.392294 2.328126 -0.558057
v 0.606043 2.320832 -0.055667
v 0.737235 2.591336 -0.733840
v 0.904154 2.655413 -0.267965
v 0.639524 2.147440 -0.460402
v 0.372252 2.477151 -0.169326
v 1.000877 2.348387 -0.332348
v 0.789977 2.582360 0.013978
v 0.385730 2.285792 -0.491761
v 0.620466 2.369115 -0.125538
v 0.722588 2.560746 -0.730359
v 0.900441 2.663936 -0.396968
v 0.477948 2.086462 -0.458205
v 0.519621 2.550242 -0.212472
v 0.953837 2.048622 -0.592742
v 1.058095 2.450731 -0.288535
v 0.655843 2.170031 -0.465896
v 0.359292 2.454322 -0.163871
v 0.908260 1.921222 -0.118936
v 0.636582 2.233974 0.173429
v 0.403813 2.390759 -0.529011
v 0.547694 2.329571 -0.121228
v 0.825726 2.256455 -0.681047
v 1.024305 2.067855 -0.174448
v 0.406059 2.145054 -0.126548
v 0.650198 2.429979 -0.450918
v 0.807142 2.142901 0.135769
v 1.051281 2.427825 -0.188601
v 0.328720 2.424959 -0.359207
v 0.735330 2.150073 -0.287733
v 0.563527 2.688049 -0.670602
v 0.860733 2.526098 -0.658253
v 0.389323 2.275468 -0.083579
v 0.589432 2.389411 -0.509161
v 0.426790 2.783033 -0.038277
v 0.658043 2.841525 -0.441097
v 0.596004 2.180633 -0.249948
v 0.432115 2.485012 -0.435334
v 0.957877 2.384302 0.048093
v 0.653700 2.839639 -0.199600
v 0.535613 2.135272 -0.055733
v 0.491571 2.224581 -0.541620
v 0.110647 2.420731 -0.013423
v 0.029678 2.513665 -0.465054
v 0.361175 2.045256 -0.195825
v 0.598575 2.402254 -0.489356
v -0.013763 2.161227 -0.469117
v 0.216469 2.486162 -0.717451
v 0.573300 2.243818 -0.110685
v 0.368496 2.272335 -0.563506
v 0.250759 2.457618 0.065642
v 0.063459 2.492809 -0.392269
v 0.507762 2.060125 -0.234518
v 0.509110 2.387633 -0.468648
v 0.030570 1.969144 -0.172216
v 0.013813 2.384557 -0.442685
v 0.330733 2.134685 -0.215290
v 0.611063 2.381468 -0.458901
v 0.144315 1.921971 -0.555522
v 0.502195 2.070801 -0.876884
v 0.489898 2.271535 -0.121400
v 0.455795 2.244617 -0.587528
v 0.063730 2.082402 -0.079298
v 0.025730 2.055484 -0.510690
v 0.608094 2.135694 -0.462738
v 0.373303 2.327895 -0.196241
v 0.279275 2.150836 -0.795623
v 0.052253 2.363935 -0.572579
v 0.717309 2.299993 -0.248819
v 0.286587 2.129660 -0.390747
v 0.379303 2.609279 0.022180
v 0.028212 2.333113 -0.122120
v 0.692952 2.161577 -0.468952
v 0.310353 2.254678 -0.147604
v 0.645764 2.644711 -0.570721
v 0.221016 2.706945 -0.259319
v 0.426782 1.993548 -0.437341
v 0.546996 2.437199 -0.223285
v 0.117560 2.368808 -0.722519
v 0.265860 2.727053 -0.460162
v 0.242592 1.953671 -0.428397
v 0.595543 2.209790 -0.182463
v 0.508313 1.829775 -0.717539
v 0.879032 2.016091 -0.500705
v 0.361971 1.888216 -0.307990
v 0.511895 2.274344 -0.288250
v 0.835648 1.653200 -0.251264
v 0.915179 2.246510 -0.245431
v 0.221893 2.029672 -0.394029
v 0.621874 2.139904 -0.220399
v 0.454311 1.813376 -0.775080
v 0.881503 1.829330 -0.523575
v 0.237159 1.903168 -0.204397
v 0.633819 2.172130 -0.332157
v 0.492167 1.486450 -0.289949
v 0.850119 1.896178 -0.469235
v 0.385397 1.798317 -0.339153
v 0.442202 2.345291 -0.252403
v 0.648912 1.678078 0.063470
v 0.756888 2.156742 0.135748
v 0.258121 2.041039 -0.451981
v 0.591765 2.108322 -0.089157
v 0.453153 1.502363 -0.447174
v 0.768553 1.770152 -0.157523
v 0.373872 2.133555 -0.048036
v 0.465808 2.037969 -0.539923
v 0.824812 2.012770 0.094893
v 0.944148 1.820957 -0.310851
v 0.285205 2.289699 -0.386896
v 0.539059 1.943565 -0.229601
v 0.426297 2.018445 -0.822397
v 0.620773 1.766464 -0.655185
v 0.412073 2.296969 -0.176402
v 0.412190 1.936294 -0.440095
v 0.775398 2.452227 -0.410013
v 0.768253 2.060604 -0.748908
v 0.483506 1.926667 -0.051764
v 0.387471 2.148631 -0.484790
v 0.926123 2.093062 -0.205996
v 0.788255 2.304515 -0.600260
v -0.814578 3.061531 0.453634
v -0.298807 2.885476 0.568199
v -0.870101 2.931551 0.974395
v -0.364778 2.870097 1.041966
v -0.689038 3.120509 0.606921
v -0.413899 2.711898 0.461905
v -0.349068 3.313854 0.991398
v -0.090428 2.850683 0.870711
v -0.804789 2.992869 0.403842
v -0.303548 3.018206 0.613847
v -1.008901 2.953781 0.870294
v -0.465566 2.878989 1.066693
v -0.689950 3.097799 0.387092
v -0.409091 2.734608 0.646998
v -0.685782 3.504539 0.794446
v -0.416466 3.000973 1.085962
v -0.690971 3.107718 0.633333
v -0.419667 2.786275 0.420356
v -0.264861 3.398108 0.631813
v 0.010247 3.015080 0.468711
v -0.803078 2.898749 0.517998
v -0.282248 2.998141 0.507767
v -0.805595 3.287619 0.853360
v -0.265501 3.420701 0.815468
v -0.416767 2.969424 0.322407
v -0.682274 2.862982 0.711682
v 0.024414 3.153370 0.624478
v -0.299662 3.083255 1.055808
v -0.645620 2.704270 0.424216
v -0.453421 3.128136 0.609873
v -0.933606 2.618802 0.803236
v -0.786429 3.177596 1.044040
v -0.368317 2.897069 0.303451
v -0.716471 2.997205 0.675277
v -0.270443 2.429954 0.653594
v -0.604343 2.591958 0.970059
v -0.402621 3.126341 0.472202
v -0.729780 2.799264 0.533514
v -0.103187 3.029059 0.916331
v -0.393915 2.547539 0.945364
v -0.491133 2.951058 0.152861
v -0.694098 3.054795 0.683175
v -0.986229 2.973902 0.053118
v -1.167140 3.195129 0.427481
v -0.578791 3.093690 0.251820
v -0.633525 2.819258 0.596674
v -0.946009 3.496547 0.407980
v -1.035620 3.129210 0.834766
v -0.484738 2.810406 0.258772
v -0.710056 3.128563 0.610312
v -0.935600 2.829787 0.013738
v -1.169194 3.184306 0.352415
v -0.379037 3.099878 0.259902
v -0.806193 2.905976 0.576134
v -0.689649 3.505083 0.071978
v -1.116805 3.311181 0.388211
v -0.607056 3.087642 0.246391
v -0.607452 2.823055 0.639044
v -0.584292 3.590747 0.556883
v -0.613965 3.231004 0.998936
v -0.559709 2.921730 0.142880
v -0.613163 2.978687 0.714946
v -0.778149 3.294822 0.048603
v -0.820518 3.428004 0.577786
v -0.400308 2.939319 0.634140
v -0.789328 2.987138 0.246140
v -0.701498 3.223168 0.938128
v -1.099132 3.327192 0.536608
v -0.534051 2.664580 0.434949
v -0.653801 3.159613 0.500497
v -0.902039 2.622661 0.079249
v -1.001379 3.249858 0.056561
v -0.496061 2.911348 0.671833
v -0.709797 2.995608 0.254361
v -0.889074 2.541390 0.791888
v -1.116920 2.708414 0.330427
v -0.532347 3.135074 0.579134
v -0.670054 2.769806 0.285112
v -0.984840 3.143586 0.779621
v -1.107999 2.697630 0.556799
v -0.145694 2.489056 -0.753865
v -0.428312 2.648746 -0.257758
v -0.076743 2.996868 -0.936509
v -0.420128 3.136765 -0.417336
v -0.008951 2.622884 -0.596508
v -0.528522 2.548467 -0.503064
v -0.004656 3.092677 -0.356871
v -0.577895 2.948942 -0.128043
v -0.268841 2.450981 -0.696687
v -0.361636 2.699272 -0.292451
v -0.282289 2.896521 -0.951654
v -0.378979 3.144811 -0.512681
v -0.099200 2.450953 -0.531846
v -0.487537 2.740031 -0.529194
v 0.155149 2.897047 -0.530905
v -0.280825 3.145395 -0.421615
v -0.086841 2.660192 -0.598009
v -0.519706 2.521430 -0.490331
v 0.050668 2.779877 -0.117946
v -0.400674 2.651762 0.058106
v -0.185918 2.543113 -0.787368
v -0.379774 2.600683 -0.265259
v 0.117924 2.901498 -0.660989
v -0.011147 2.952611 -0.202369
v -0.310619 2.391937 -0.297417
v -0.242606 2.772829 -0.763077
v -0.284362 2.791487 0.004961
v -0.327318 3.117927 -0.290429
v -0.449676 2.453693 -0.719238
v -0.143422 2.711411 -0.375943
v -0.473054 2.792578 -0.985175
v -0.011273 3.075512 -0.782916
v -0.431605 2.447150 -0.400893
v -0.181808 2.724454 -0.674225
v -0.868342 2.711488 -0.392049
v -0.513324 3.063813 -0.819636
v -0.124750 2.588014 -0.302866
v -0.468848 2.565992 -0.684177
v -0.413686 3.003100 -0.106870
v -0.643237 3.055312 -0.654968
v -0.365646 2.236454 -0.357282
v -0.295483 2.582304 -0.694832
v -0.852824 2.391732 -0.309947
v -0.778765 2.737581 -0.682234
v -0.487791 2.205323 -0.521849
v -0.118265 2.611627 -0.542631
v -0.782018 2.453867 -0.892804
v -0.379401 2.890588 -0.961978
v -0.295872 2.272013 -0.362909
v -0.298875 2.550555 -0.830233
v -0.770438 2.410951 -0.176808
v -0.794878 2.748425 -0.674396
v -0.306198 2.153829 -0.532702
v -0.351034 2.664929 -0.554149
v -0.801531 2.129295 -0.787071
v -0.837789 2.615537 -0.687048
v -0.509476 2.223414 -0.513639
v -0.151653 2.595344 -0.538476
v -0.476009 2.236785 -1.117711
v -0.066844 2.594456 -1.092377
v -0.405944 2.290089 -0.293511
v -0.192942 2.521902 -0.822080
v -0.819880 2.113351 -0.568817
v -0.673018 2.351930 -0.999172
v -0.116735 2.366580 -0.641096
v -0.548291 2.452179 -0.376282
v -0.238912 2.577833 -1.143518
v -0.699192 2.720259 -0.932814
v -0.164321 2.479417 -0.336891
v -0.465787 2.339131 -0.748786
v -0.633611 2.588659 -0.084266
v -0.898759 2.392912 -0.477978
v -0.102680 2.500075 -0.624977
v -0.554552 2.318683 -0.461874
v -0.242437 2.973994 -0.485111
v -0.663139 2.859406 -0.366332
v -0.289298 2.306737 -0.812679
v -0.336449 2.499788 -0.268409
v -0.567886 2.740937 -0.946461
v -0.579655 2.921755 -0.431165
v -0.491701 2.185781 -0.720645
v -0.073308 2.377775 -0.417588
v -0.369337 2.368456 -1.080663
v 0.060433 2.562748 -0.877581
v -0.300380 2.091899 -0.692785
v -0.272108 2.469358 -0.380212
v 0.163040 2.224735 -0.869676
v 0.191312 2.602194 -0.557103
v -0.526017 2.234044 -0.659142
v -0.003784 2.307571 -0.507069
v -0.445420 2.428807 -1.125318
v 0.084606 2.502334 -1.042719
v -0.387698 2.029572 -0.615992
v -0.187460 2.517969 -0.539177
v -0.117643 1.962603 -1.001867
v 0.157577 2.385118 -0.986187
v -0.296438 2.112710 -0.713188
v -0.251051 2.454170 -0.399891
v 0.199010 1.881862 -0.606732
v 0.226709 2.248587 -0.240305
v -0.499070 2.245461 -0.690099
v -0.046897 2.291781 -0.407062
v -0.196924 1.968827 -1.089092
v 0.242981 2.010774 -0.771743
v -0.239642 2.173694 -0.313100
v -0.338770 2.376162 -0.752023
v 0.264256 2.260962 -0.364107
v 0.166998 2.452028 -0.864630
v -0.485038 2.410108 -0.459733
v -0.083554 2.151149 -0.648001
v -0.540515 2.596710 -1.032596
v -0.130816 2.277294 -1.194175
v -0.229483 2.324831 -0.335978
v -0.328283 2.233965 -0.802486
v -0.180610 2.826550 -0.409517
v -0.272480 2.733223 -0.872017
v -0.095079 2.113640 -0.506589
v -0.441939 2.463719 -0.669361
v 0.247088 2.465841 -0.612881
v -0.127450 2.799818 -0.742174
v -0.776262 1.785838 0.156385
v -0.585625 2.064217 -0.194048
v -1.210032 1.719819 -0.110409
v -1.064931 2.047098 -0.584221
v -0.735271 1.674677 -0.045201
v -0.666770 2.212515 -0.065805
v -0.816934 1.711214 -0.550860
v -0.704382 2.211916 -0.532857
v -0.857083 1.891795 0.206968
v -0.647899 2.015775 -0.316105
v -1.234468 1.794151 0.026560
v -1.147378 1.996718 -0.530915
v -0.704950 1.724000 0.099716
v -0.800032 2.183570 -0.208853
v -0.964395 1.439740 -0.316903
v -1.063374 1.899311 -0.590736
v -0.863847 1.705570 -0.057585
v -0.596830 2.167419 -0.015737
v -0.459370 1.614942 -0.466584
v -0.305387 2.085869 -0.425645
v -0.838868 1.822291 0.174718
v -0.523018 2.027765 -0.212382
v -1.079873 1.469883 -0.237355
v -0.706106 1.642857 -0.592832
v -0.481832 1.965728 -0.031337
v -0.932530 1.890812 -0.057942
v -0.405212 1.982393 -0.534397
v -0.897660 1.928070 -0.533894
v -0.795584 2.128584 0.167126
v -0.709398 1.778986 -0.276263
v -1.223153 1.983770 0.137175
v -1.146070 1.673729 -0.229350
v -0.482978 2.090210 -0.021519
v -0.972399 1.798374 -0.096911
v -0.798041 2.472303 -0.131262
v -1.251228 2.226471 -0.283926
v -0.510149 1.807688 -0.150845
v -0.851738 2.042367 0.113182
v -0.696933 2.049852 -0.596303
v -1.078403 2.358902 -0.385577
v -0.374533 1.889958 0.030851
v -0.861836 1.724604 0.013918
v -0.429256 1.890389 0.541439
v -0.912663 1.725035 0.489768
v -0.426739 1.675579 0.145474
v -0.882064 1.978968 -0.150118
v -0.915157 1.444620 0.402467
v -1.148301 1.682762 0.227239
v -0.401289 1.945217 -0.021348
v -0.831183 1.669345 0.031380
v -0.478503 2.059674 0.495689
v -0.962358 1.813048 0.528045
v -0.392626 1.713793 -0.033897
v -0.843743 1.900770 0.078666
v -0.496959 1.425618 0.424335
v -0.967342 1.672901 0.540854
v -0.436264 1.685686 0.171398
v -0.804001 1.928877 -0.091892
v -0.687034 1.241595 0.111457
v -1.179474 1.520692 -0.210208
v -0.472949 1.936496 0.107096
v -0.832249 1.684405 -0.036612
v -0.426630 1.540816 0.443337
v -0.890920 1.317821 0.292879
v -0.665526 1.720011 -0.231369
v -0.566947 1.894552 0.241401
v -1.167143 1.437171 -0.050924
v -1.075251 1.628893 0.415822
v -0.605938 2.047640 -0.049409
v -0.744649 1.576279 0.080133
v -0.533806 2.253309 0.378713
v -0.628502 1.755871 0.614193
v -0.835584 1.848398 -0.254464
v -0.562915 1.801598 0.213988
v -1.102465 2.115713 0.082684
v -0.808126 2.083662 0.470215
v -0.751716 1.563693 -0.074677
v -0.590266 2.055953 0.096270
v -1.061927 1.540200 0.249241
v -1.002194 2.037542 0.362276
vn 0.5613 -0.6229 -0.5450
vn 0.7179 -0.0699 -0.6927
vn 0.9577 -0.0265 0.2867
vn 0.7547 -0.6157 0.2265
vn 0.2463 0.0924 0.9648
vn -0.7096 0.1551 0.6873
vn -0.7148 0.1040 0.6915
vn 0.2343 0.0604 0.9703
vn -0.9617 0.0621 -0.2670
vn -0.7770 -0.5925 -0.2128
vn -0.5845 -0.5856 0.5616
vn 0.9595 -0.0419 0.2785
vn 0.9648 -0.0141 0.2626
vn 0.2595 0.0828 0.9622
vn -0.2452 -0.0509 -0.9681
vn -0.2528 -0.0249 -0.9672
vn -0.9571 0.0838 -0.2773
vn 0.7153 -0.1138 -0.6895
vn -0.7126 0.1198 0.6913
vn 0.9659 0.0578 0.2523
vn 0.2669 0.0287 0.9633
vn -0.2308 -0.0393 -0.9722
vn -0.9557 0.0576 -0.2885
vn 0.7177 -0.0742 -0.6924
vn -0.7162 -0.0084 0.6979
vn 0.9555 0.1400 0.2597
vn 0.2702 -0.0452 0.9617
vn -0.2236 0.0157 -0.9746
vn -0.9557 -0.0146 -0.2941
vn 0.7166 0.0510 -0.6956
vn -0.7032 -0.1696 0.6904
vn 0.9329 0.2094 0.2930
vn 0.2483 -0.0486 0.9675
vn -0.2346 0.0861 -0.9683
vn -0.9500 -0.1006 -0.2956
vn 0.6990 0.2028 -0.6858
vn -0.6912 -0.2233 0.6873
vn 0.9200 0.2358 0.3130
vn 0.2094 0.0497 0.9766
vn -0.2596 0.1203 -0.9582
vn -0.9508 -0.1398 -0.2763
vn 0.6831 0.2944 -0.6684
vn -0.7104 -0.1230 0.6929
vn 0.9337 0.1909 0.3028
vn 0.1923 0.1482 0.9701
vn -0.2651 0.0687 -0.9618
vn -0.9587 -0.1170 -0.2592
vn 0.6963 0.2494 -0.6730
vn -0.7359 0.0291 0.6765
vn 0.9506 0.0861 0.2982
vn 0.1975 0.1692 0.9656
vn -0.2493 -0.0127 -0.9684
vn -0.9605 -0.0510 -0.2736
vn 0.7179 0.1101 -0.6874
vn -0.7423 0.1520 0.6526
vn 0.9522 -0.0492 0.3016
vn 0.2042 0.1038 0.9734
vn -0.2368 -0.0284 -0.9711
vn -0.9526 0.0546 -0.2992
vn 0.7255 -0.0143 -0.6881
vn -0.7357 0.2135 0.6428
vn 0.9388 -0.1621 0.3038
vn 0.1965 -0.0014 0.9805
vn -0.2167 0.0256 -0.9759
vn -0.9311 0.1730 -0.3211
vn 0.7251 -0.0866 -0.6832
vn -0.7290 0.2248 0.6465
vn 0.2647 0.9613 0.0759
vn -0.1828 0.1306 -0.9744
vn -0.9006 0.2865 -0.3267
vn 0.7307 -0.0918 -0.6765
vn 0.2795 0.8385 0.4678
vn 0.2531 0.8401 0.4797
vn 0.1262 -0.0119 0.9919
vn 0.2223 -0.0184 0.9748
vn 0.1827 -0.5971 0.7811
vn -0.2029 -0.6111 -0.7651
vn -0.4722 -0.7428 -0.4747
vn -0.4331 -0.6281 -0.6465
vn 0.4984 -0.7852 -0.3674
vn 0.4994 -0.8127 -0.3003
vn -0.9941 -0.0152 -0.1071
vn -0.9486 0.1088 -0.2971
vn -0.9079 0.1531 0.3903
vn -0.1016 0.9708 -0.2172
vn -0.7817 -0.0081 -0.6236
vn -0.0912 0.2243 0.9702
vn 0.8240 -0.3303 0.4604
vn 0.2529 0.4976 0.8297
vn 0.3743 0.6302 0.6803
vn 0.9357 -0.1595 0.3146
vn 0.5254 -0.7336 -0.4310
vn -0.2293 -0.3690 -0.9007
vn 0.6584 -0.4835 0.5769
vn 0.0539 0.2536 0.9658
vn 0.6296 -0.6665 -0.3993
vn -0.5371 0.8054 0.2506
vn -0.5591 0.7694 0.3089
vn -0.5323 0.5322 -0.6583
vn -0.7309 0.3597 -0.5800
vn 0.6625 -0.4430 0.6040
vn -0.0573 0.1103 0.9922
vn 0.0489 -0.1641 -0.9852
vn 0.7813 -0.5169 -0.3500
vn -0.6973 0.6156 0.3672
vn -0.5506 0.5188 -0.6540
vn 0.7647 -0.1900 0.6157
vn -0.0672 0.1130 0.9913
vn 0.2030 -0.0565 -0.9776
vn 0.9100 -0.2673 -0.3170
vn -0.8443 0.3655 0.3919
vn -0.7011 0.2821 -0.6549
vn 0.7954 0.1468 0.5880
vn 0.2246 -0.0487 -0.9732
vn 0.9367 -0.0066 -0.3500
vn 0.1789 -0.0896 -0.9798
vn -0.5751 0.7402 0.3483
vn 0.3992 0.6457 0.6510
vn -0.5837 0.6766 0.4489
vn 0.8294 -0.0664 -0.5547
vn 0.8292 -0.0673 -0.5550
vn 0.6703 0.7413 0.0345
vn 0.6956 0.7158 0.0617
vn 0.9561 -0.1132 0.2702
vn 0.0220 -0.8643 0.5025
vn -0.1107 -0.8460 0.5215
vn -0.2281 -0.8603 -0.4559
vn -0.1234 -0.8707 -0.4760
vn -0.0632 0.0191 0.9978
vn 0.3285 0.7999 0.5023
vn 0.3086 0.7777 -0.5476
vn 0.1360 0.8390 -0.5268
vn 0.0120 0.1930 -0.9811
vn -0.0282 0.2339 -0.9718
vn 0.6994 0.5831 -0.4133
vn 0.7531 0.4957 -0.4325
vn -0.7779 -0.2561 -0.5738
vn -0.7617 -0.3131 -0.5672
vn -0.4747 -0.7749 -0.4174
vn -0.4420 -0.7246 0.5287
vn -0.1180 -0.0610 -0.9911
vn -0.1080 -0.0263 -0.9938
vn 0.7611 0.3836 0.5230
vn -0.1357 0.1907 0.9722
vn -0.1845 0.1285 0.9744
vn 0.5719 0.6263 0.5298
vn 0.8352 0.2613 -0.4839
vn 0.6546 0.5229 -0.5460
vn -0.0582 -0.0876 -0.9945
vn -0.7899 -0.3932 0.4706
vn -0.7349 -0.5038 -0.4539
vn 0.7986 0.3134 0.5139
vn -0.0507 0.0775 0.9957
vn 0.8340 0.3053 -0.4597
vn 0.0334 -0.0395 -0.9987
vn -0.9022 -0.1050 0.4184
vn -0.8138 -0.2142 -0.5403
vn 0.7605 0.3724 0.5319
vn -0.0038 -0.0710 0.9975
vn 0.0618 0.0755 -0.9952
vn -0.8819 -0.1729 0.4385
vn -0.7991 -0.1653 -0.5780
vn 0.7281 0.4070 0.5516
vn 0.0121 -0.1359 0.9906
vn -0.8036 -0.3984 0.4421
vn -0.7483 -0.5056 0.4294
vn 0.1331 0.8404 -0.5255
vn -0.0696 -0.0224 -0.9973
vn -0.1421 0.8348 -0.5320
vn -0.1029 0.9140 -0.3923
vn 0.7600 0.4331 -0.4846
vn 0.7351 0.3871 -0.5566
vn 0.5611 -0.6830 0.4676
vn 0.5542 -0.5999 0.5770
vn -0.4151 -0.8077 0.4186
vn -0.4395 -0.7854 0.4359
vn 0.9991 0.0230 -0.0359
vn 0.9754 0.1623 0.1495
vn 0.7832 0.0468 -0.6200
vn 0.2666 0.9614 0.0677
vn 0.9116 -0.0949 0.3999
vn -0.1690 0.2053 -0.9640
vn -0.8666 -0.3175 -0.3850
vn -0.4473 0.5888 -0.6732
vn -0.4718 0.6164 -0.6305
vn -0.9599 -0.1857 -0.2099
vn -0.3757 -0.8588 0.3483
vn 0.4624 -0.4904 0.7387
vn -0.7597 -0.4155 -0.5002
vn -0.3814 0.4862 -0.7863
vn -0.3978 -0.8633 0.3106
vn 0.3956 0.8889 -0.2310
vn 0.3629 0.9042 -0.2254
vn 0.6952 0.4205 0.5830
vn 0.8195 0.3557 0.4494
vn -0.8069 -0.3727 -0.4583
vn -0.2988 0.3691 -0.8801
vn 0.3149 -0.4473 0.8371
vn -0.5722 -0.7157 0.4005
vn 0.5154 0.7765 -0.3626
vn 0.7296 0.3679 0.5765
vn -0.9259 -0.1171 -0.3591
vn -0.2381 0.2516 -0.9381
vn 0.1572 -0.3730 0.9144
vn -0.7750 -0.3346 0.5361
vn 0.7276 0.4135 -0.5474
vn 0.8572 0.1456 0.4940
vn -0.9184 0.2246 -0.3256
vn 0.0533 -0.2239 0.9731
vn -0.7845 0.0951 0.6128
vn 0.0923 -0.0662 0.9935
vn 0.4876 0.7583 -0.4328
vn -0.4832 0.5906 -0.6463
vn 0.5034 0.6431 -0.5771
vn -0.9818 -0.1338 -0.1346
vn -0.9054 0.4124 -0.1005
vn -0.8689 0.4920 0.0533
vn 0.8473 -0.5140 -0.1339
vn 0.8553 -0.5043 -0.1186
vn 0.0576 -0.9373 0.3437
vn 0.0556 -0.9485 0.3118
vn 0.5089 -0.0617 0.8586
vn -0.0282 0.9983 0.0514
vn -0.4486 0.0081 0.8937
vn -0.0283 0.9805 -0.1945
vn 0.7798 0.4540 -0.4311
vn 0.8337 -0.5261 -0.1676
vn -0.9798 0.1910 0.0590
vn 0.0491 -0.9411 0.3345
vn -0.8024 -0.4214 0.4226
vn -0.7455 -0.3740 0.5516
vn -0.7710 0.5687 0.2868
vn -0.1078 0.9316 -0.3470
vn 0.7175 0.3478 -0.6036
vn 0.7641 0.4127 -0.4959
vn -0.0032 0.9852 -0.1716
vn 0.8329 -0.5303 -0.1582
vn 0.7910 -0.5634 -0.2383
vn -0.7156 0.5767 0.3942
vn 0.0677 -0.9431 0.3256
vn -0.6732 -0.3779 0.6355
vn -0.3347 0.6581 -0.6744
vn 0.6449 0.2498 -0.7223
vn 0.9507 -0.3099 0.0055
vn -0.7533 0.5439 0.3697
vn 0.2127 -0.8447 0.4911
vn -0.5514 -0.3440 0.7600
vn -0.4675 0.2959 -0.8330
vn 0.5520 0.2045 -0.8084
vn 0.9984 0.0284 0.0497
vn -0.8951 0.3887 0.2183
vn 0.4326 -0.5063 0.7460
vn -0.4360 -0.1973 0.8780
vn -0.8219 -0.4703 0.3214
vn -0.6026 -0.7919 0.0984
vn -0.6648 -0.7465 0.0274
vn 0.1466 -0.8192 -0.5544
vn 0.1703 -0.8283 -0.5337
vn -0.7182 -0.0170 0.6957
vn -0.8016 0.0471 0.5960
vn -0.2150 0.0640 0.9745
vn 0.0525 0.9847 0.1664
vn -0.9514 0.1510 0.2685
vn 0.7558 0.0050 0.6547
vn 0.8637 -0.1154 -0.4906
vn 0.6782 0.7326 0.0570
vn 0.1290 -0.8141 -0.5662
vn -0.7388 -0.6639 -0.1163
vn 0.9028 -0.1978 -0.3819
vn 0.7459 0.6336 0.2052
vn 0.1276 -0.7763 -0.6174
vn -0.2204 0.8401 0.4956
vn -0.2137 0.8267 0.5205
vn -0.9460 0.2087 0.2479
vn -0.9051 0.1445 0.3999
vn 0.9087 -0.2227 -0.3531
vn 0.7955 0.4378 0.4190
vn -0.7649 -0.5673 -0.3050
vn 0.1328 -0.5943 -0.7932
vn -0.1962 0.6861 0.7006
vn -0.9537 0.2455 0.1739
vn 0.9216 -0.1340 -0.3643
vn 0.7921 0.1664 0.5873
vn -0.7528 -0.3703 -0.5442
vn 0.1798 -0.2422 -0.9534
vn -0.2030 0.3556 0.9123
vn -0.9562 0.2108 0.2029
vn 0.9453 0.0374 -0.3241
vn -0.7125 -0.0815 -0.6969
vn 0.2256 0.1242 -0.9663
vn -0.6990 0.1783 -0.6926
vn -0.1481 0.7836 0.6034
vn -0.0801 0.7283 0.6805
vn -0.0041 -1.0000 -0.0012
vn 0.6312 -0.1962 0.7504
vn 0.2379 0.4641 0.8533
vn -0.3575 0.1336 0.9243
vn 0.1437 -0.6743 0.7243
vn 0.9295 -0.3614 0.0734
vn 0.5564 -0.8287 -0.0612
vn -0.4350 0.8821 0.1808
vn 0.1459 0.9543 0.2607
vn 0.4600 0.7856 -0.4138
vn 0.0674 0.6714 -0.7380
vn 0.5627 -0.2330 -0.7931
vn 0.8527 0.1293 -0.5061
vn -0.6728 -0.7336 0.0960
vn -0.9993 -0.0364 0.0033
vn -0.7690 0.0195 -0.6390
vn -0.3110 -0.8220 -0.4771
vn -0.0843 -0.8202 0.5659
vn 0.3391 -0.9308 0.1367
vn -0.4924 0.8675 -0.0704
vn -0.7202 0.5744 0.3892
vn -0.1355 0.4755 0.8692
vn 0.2787 0.7060 0.6510
vn 0.6629 -0.2509 0.7054
vn 0.1803 -0.2215 0.9583
vn 0.4179 -0.1985 -0.8865
vn 0.6341 0.4886 -0.5993
vn 0.9766 0.1987 -0.0823
vn 0.6369 -0.6468 -0.4195
vn -0.3084 -0.4134 -0.8568
vn -0.2371 -0.8629 -0.4462
vn 0.2889 0.9145 0.2833
vn 0.1063 0.9550 -0.2771
vn -0.6243 0.7357 -0.2625
vn -0.7397 0.6304 0.2354
vn -0.9398 -0.3040 -0.1559
vn -0.8309 0.0531 -0.5539
vn -0.7097 -0.5634 -0.4229
vn -0.5614 0.1926 -0.8048
vn -0.7800 -0.6049 -0.1605
vn -0.1281 -0.0092 -0.9917
vn -0.7911 0.5735 -0.2126
vn -0.9275 0.2623 -0.2665
vn 0.8527 0.5224 -0.0068
vn -0.9060 0.0981 0.4118
vn -0.0835 0.6820 0.7266
vn 0.3315 0.7893 -0.5168
vn -0.8634 -0.1055 -0.4933
vn -0.3130 0.4418 -0.8407
vn -0.9774 -0.0260 -0.2099
vn -0.0990 0.0911 -0.9909
vn -0.2511 0.9668 -0.0477
vn -0.6552 0.6967 -0.2922
vn 0.9987 0.0061 0.0514
vn -0.7034 0.5680 0.4274
vn 0.2279 0.6428 0.7314
vn 0.7335 0.5855 -0.3452
vn -0.8862 0.1368 -0.4427
vn -0.2352 0.3472 -0.9078
vn -0.9018 0.3850 -0.1961
vn -0.2068 -0.0505 -0.9771
vn 0.1369 0.9089 -0.3939
vn -0.2643 0.8480 -0.4593
vn 0.9169 -0.3981 0.0293
vn -0.3824 0.8745 0.2985
vn 0.6428 0.5097 0.5718
vn 0.7440 0.1140 -0.6584
vn -0.9629 -0.0239 -0.2686
vn -0.3468 0.3479 -0.8710
vn -0.9466 0.1207 -0.2989
vn -0.1322 0.0542 -0.9897
vn -0.3879 0.9143 -0.1168
vn -0.6841 0.6107 -0.3989
vn 0.9902 0.0215 0.1378
vn -0.6318 0.5693 0.5260
vn 0.2683 0.5925 0.7596
vn 0.7075 0.5167 -0.4821
vn -0.8905 -0.0836 -0.4472
vn -0.3762 0.5198 -0.7670
vn -0.9913 -0.0513 -0.1216
vn 0.0397 0.0673 -0.9969
vn -0.3336 0.9382 -0.0918
vn -0.6576 0.6973 -0.2853
vn 0.9983 0.0224 0.0537
vn -0.7960 0.4797 0.3692
vn 0.3063 0.5638 0.7670
vn 0.5419 0.5404 -0.6437
vn -0.6182 0.7456 0.2488
vn -0.6610 0.5346 -0.5266
vn -0.4272 0.8108 0.4002
vn -0.8817 0.1861 -0.4335
vn -0.1152 0.7542 -0.6464
vn -0.2450 0.8805 -0.4058
vn 0.2522 -0.8648 -0.4341
vn 0.4885 0.8630 0.1288
vn 0.9641 -0.0313 -0.2638
vn -0.0932 -0.3499 -0.9321
vn 0.3515 0.9254 0.1419
vn 0.2634 0.3612 0.8945
vn 0.0953 0.9907 0.0974
vn 0.6039 0.2716 0.7494
vn -0.4232 0.2625 0.8672
vn -0.3238 0.5381 0.7782
vn 0.0706 -0.9973 -0.0191
vn -0.7212 0.6926 0.0109
vn -0.9720 -0.2216 -0.0787
vn 0.1409 -0.6810 0.7186
vn 0.5035 0.6295 -0.5918
vn 0.9923 -0.0049 -0.1240
vn 0.4520 0.8622 -0.2288
vn 0.7407 0.2724 -0.6142
vn 0.7810 0.1101 0.6147
vn 0.8588 0.4755 0.1907
vn -0.2091 -0.9632 -0.1689
vn 0.2167 0.6657 0.7140
vn -0.1149 -0.1533 0.9815
vn 0.5795 -0.8147 -0.0215
vn -0.1023 0.9919 -0.0748
vn 0.7685 0.6397 -0.0138
vn -0.3060 0.9432 0.1293
vn 0.6894 0.5684 -0.4491
vn 0.5656 0.4109 0.7151
vn 0.4196 0.6988 0.5794
vn 0.3366 -0.9101 -0.2416
vn -0.1810 0.5050 0.8439
vn 0.0014 -0.5286 0.8489
vn 0.9231 -0.3650 -0.1212
vn 0.6195 0.7508 0.2292
vn 0.1560 0.9101 -0.3838
vn 0.8094 0.5332 0.2462
vn -0.2444 0.9695 -0.0171
vn 0.4098 0.3315 -0.8498
vn 0.5374 0.5780 -0.6141
vn -0.9214 -0.3226 -0.2169
vn 0.8636 -0.1374 -0.4851
vn 0.1317 -0.7312 -0.6694
vn -0.7442 0.2457 -0.6211
vn -0.6036 0.7739 0.1919
vn -0.0225 0.7405 -0.6717
vn -0.6031 0.7841 0.1466
vn -0.0990 0.5453 -0.8324
vn 0.6979 0.7144 -0.0504
vn 0.4188 0.9036 0.0900
vn 0.3119 -0.8178 -0.4836
vn 0.2944 0.6148 0.7317
vn 0.8894 -0.1493 0.4320
vn 0.6765 -0.0030 -0.7364
vn 0.5499 0.8306 0.0881
vn -0.2546 0.7026 0.6645
vn 0.5019 0.8506 -0.1566
vn 0.0207 0.5620 0.8269
vn -0.6556 0.7162 -0.2391
vn -0.4066 0.9133 -0.0221
vn -0.4132 -0.8537 0.3170
vn -0.1050 0.6604 -0.7435
vn -0.6262 -0.2592 -0.7353
vn -0.7407 -0.1421 0.6566
vn -0.1435 0.8178 -0.5574
vn 0.1127 -0.0004 -0.9936
vn 0.1478 0.8321 -0.5345
vn -0.3963 0.0254 -0.9178
vn 0.8000 -0.0357 -0.5989
vn 0.5922 0.3052 -0.7458
vn -0.4022 -0.8952 0.1919
vn 0.8187 0.5681 -0.0840
vn 0.6389 -0.4846 0.5975
vn 0.1679 -0.8529 -0.4943
vn -0.1954 -0.9667 -0.1652
vn -0.5302 -0.5271 0.6641
vn 0.0239 -0.9832 -0.1812
vn -0.8806 -0.3726 0.2930
vn 0.1680 -0.3597 0.9178
vn 0.1695 -0.6139 0.7709
vn -0.3873 0.9184 -0.0807
vn 0.7107 -0.4719 0.5218
vn 0.6952 0.5280 0.4878
vn -0.5767 0.5118 0.6367
vn -0.2446 -0.9409 0.2342
vn -0.7073 -0.4728 -0.5255
vn -0.3527 -0.7765 0.5222
vn -0.2980 -0.5800 -0.7581
vn -0.9995 0.0286 -0.0146
vn -0.8883 -0.4593 0.0020
vn 0.4925 0.8027 -0.3363
vn -0.7395 -0.1693 0.6515
vn -0.4939 0.7384 0.4592
vn -0.4136 0.5801 -0.7017
vn -0.8600 -0.1050 -0.4993
vn -0.3355 0.5318 -0.7776
vn -0.9815 -0.1153 -0.1527
vn -0.0385 0.1468 -0.9884
vn -0.3283 0.9334 -0.1450
vn -0.6542 0.6974 -0.2927
vn -0.7056 0.5440 0.4542
vn 0.3053 0.5623 0.7685
vn 0.7471 0.4936 -0.4451
vn 0.2563 0.6657 0.7008
vn -0.4915 0.5243 0.6954
vn 0.4333 0.7652 0.4762
vn -0.3582 -0.1022 0.9280
vn -0.6879 0.7232 -0.0625
vn -0.4567 0.8544 0.2477
vn -0.3823 -0.8749 -0.2974
vn -0.0406 0.9320 -0.3602
vn -0.3448 0.1313 -0.9295
vn -0.8658 -0.4851 0.1230
vn -0.5082 0.8339 0.2152
vn -0.4298 0.5948 -0.6794
vn -0.2016 0.9239 0.3252
vn -0.6807 0.4165 -0.6026
vn 0.4489 0.5942 -0.6674
vn 0.2222 0.8614 -0.4568
vn 0.0827 -0.9129 -0.3997
vn 0.6176 0.7703 0.1586
vn 0.9763 -0.1271 -0.1752
vn 0.0784 -0.3204 -0.9440
vn -0.3886 0.8109 0.4375
vn -0.9772 0.1707 0.1261
vn -0.2271 0.9477 0.2241
vn -0.8679 0.1218 0.4815
vn -0.6719 0.3607 -0.6469
vn -0.6739 0.6850 -0.2767
vn 0.1367 -0.9898 -0.0390
vn -0.2247 0.7329 -0.6422
vn 0.3006 -0.1260 -0.9454
vn -0.6555 -0.7400 -0.1508
vn -0.3201 0.9467 -0.0351
vn 0.0859 0.7136 0.6952
vn -0.4937 0.8131 -0.3085
vn 0.4666 0.7171 0.5176
vn -0.4800 0.1728 0.8601
vn -0.5450 0.5565 0.6271
vn 0.5234 -0.8244 0.2153
vn -0.9613 0.2628 0.0829
vn -0.5330 -0.7986 0.2795
vn 0.6064 -0.3416 0.7180
vt 0.000000 0.833333
vt 0.083333 0.833333
vt 0.083333 0.666667
vt 0.000000 0.666667
vt 0.166667 0.500000
vt 0.166667 0.333333
vt 0.083333 0.333333
vt 0.083333 0.500000
vt 0.083333 0.166667
vt 0.000000 0.166667
vt 0.000000 0.333333
vt 0.166667 0.666667
vt 0.250000 0.666667
vt 0.250000 0.500000
vt 0.166667 0.000000
vt 0.083333 0.000000
vt 0.166667 0.166667
vt 0.166667 1.000000
vt 0.166667 0.833333
vt 0.083333 1.000000
vt 0.250000 0.333333
vt 0.333333 0.666667
vt 0.333333 0.500000
vt 0.250000 0.000000
vt 0.250000 0.166667
vt 0.250000 1.000000
vt 0.250000 0.833333
vt 0.333333 0.333333
vt 0.416667 0.666667
vt 0.416667 0.500000
vt 0.333333 0.000000
vt 0.333333 0.166667
vt 0.333333 1.000000
vt 0.333333 0.833333
vt 0.416667 0.333333
vt 0.500000 0.666667
vt 0.500000 0.500000
vt 0.416667 0.000000
vt 0.416667 0.166667
vt 0.416667 1.000000
vt 0.416667 0.833333
vt 0.500000 0.333333
vt 0.583333 0.666667
vt 0.583333 0.500000
vt 0.500000 0.000000
vt 0.500000 0.166667
vt 0.500000 1.000000
vt 0.500000 0.833333
vt 0.583333 0.333333
vt 0.666667 0.666667
vt 0.666667 0.500000
vt 0.583333 0.000000
vt 0.583333 0.166667
vt 0.583333 1.000000
vt 0.583333 0.833333
vt 0.666667 0.333333
vt 0.750000 0.666667
vt 0.750000 0.500000
vt 0.666667 0.000000
vt 0.666667 0.166667
vt 0.666667 1.000000
vt 0.666667 0.833333
vt 0.750000 0.333333
vt 0.833333 0.666667
vt 0.833333 0.500000
vt 0.750000 0.000000
vt 0.750000 0.166667
vt 0.750000 1.000000
vt 0.750000 0.833333
vt 0.833333 0.333333
vt 0.916667 0.666667
vt 0.916667 0.500000
vt 0.833333 0.000000
vt 0.833333 0.166667
vt 0.833333 1.000000
vt 0.833333 0.833333
vt 0.916667 0.333333
vt 1.000000 0.500000
vt 0.916667 0.000000
vt 0.916667 0.166667
vt 0.916667 1.000000
vt 0.916667 0.833333
vt 1.000000 0.333333
vt 0.000000 0.083333
vt 0.083333 0.083333
vt 0.083333 0.916667
vt 0.000000 0.916667
vt 1.000000 0.000000
vt 1.000000 0.833333
vt 1.000000 0.166667
vt 1.000000 0.666667
vt 0.000000 0.500000
vt 0.000000 0.000000
vt 0.000000 1.000000
vt 0.000000 0.750000
vt 0.083333 0.750000
vt 0.083333 0.583333
vt 0.000000 0.583333
vt 0.916667 0.083333
vt 1.000000 0.916667
vt 0.916667 0.916667
vt 0.916667 0.250000
vt 1.000000 0.083333
vt 0.250000 0.416667
vt 0.250000 0.250000
vt 0.083333 0.250000
vt 0.083333 0.416667
vt 0.250000 0.583333
vt 0.250000 0.750000
vt 0.416667 0.416667
vt 0.416667 0.250000
vt 0.416667 0.583333
vt 0.250000 0.083333
vt 0.416667 0.083333
vt 0.416667 0.916667
vt 0.250000 0.916667
vt 0.583333 0.416667
vt 0.583333 0.250000
vt 0.416667 0.750000
vt 0.583333 0.583333
vt 0.583333 0.083333
vt 0.583333 0.916667
vt 0.750000 0.416667
vt 0.750000 0.250000
vt 0.583333 0.750000
vt 0.750000 0.583333
vt 0.750000 0.083333
vt 0.750000 0.916667
vt 0.916667 0.416667
vt 0.750000 0.750000
vt 0.916667 0.583333
vt 1.000000 0.250000
vt 0.916667 0.750000
vt 1.000000 0.416667
vt 1.000000 0.583333
vt 1.000000 0.750000
vt 0.000000 0.250000
vt 0.000000 0.416667
vt 1.000000 1.000000
s 1
usemtl Material.003
f 6/1/1 12/2/2 11/3/3 5/4/4
f 16/5/5 15/6/6 9/7/7 10/8/8
f 9/7/7 8/9/9 2/10/10 3/11/11
f 17/12/12 23/13/13 22/14/14 16/5/5
f 13/15/15 7/16/16 8/9/9 14/17/17
f 13/18/15 18/19/18 12/2/2 7/20/16
f 14/17/17 8/9/9 9/7/7 15/6/6
f 12/2/2 18/19/18 17/12/12 11/3/3
f 22/14/14 21/21/19 15/6/6 16/5/5
f 23/13/13 29/22/20 28/23/21 22/14/14
f 19/24/22 13/15/15 14/17/17 20/25/23
f 19/26/22 24/27/24 18/19/18 13/18/15
f 20/25/23 14/17/17 15/6/6 21/21/19
f 18/19/18 24/27/24 23/13/13 17/12/12
f 28/23/21 27/28/25 21/21/19 22/14/14
f 29/22/20 35/29/26 34/30/27 28/23/21
f 25/31/28 19/24/22 20/25/23 26/32/29
f 25/33/28 30/34/30 24/27/24 19/26/22
f 26/32/29 20/25/23 21/21/19 27/28/25
f 24/27/24 30/34/30 29/22/20 23/13/13
f 34/30/27 33/35/31 27/28/25 28/23/21
f 35/29/26 41/36/32 40/37/33 34/30/27
f 31/38/34 25/31/28 26/32/29 32/39/35
f 31/40/34 36/41/36 30/34/30 25/33/28
f 32/39/35 26/32/29 27/28/25 33/35/31
f 30/34/30 36/41/36 35/29/26 29/22/20
f 40/37/33 39/42/37 33/35/31 34/30/27
f 41/36/32 47/43/38 46/44/39 40/37/33
f 37/45/40 31/38/34 32/39/35 38/46/41
f 37/47/40 42/48/42 36/41/36 31/40/34
f 38/46/41 32/39/35 33/35/31 39/42/37
f 36/41/36 42/48/42 41/36/32 35/29/26
f 46/44/39 45/49/43 39/42/37 40/37/33
f 47/43/38 53/50/44 52/51/45 46/44/39
f 43/52/46 37/45/40 38/46/41 44/53/47
f 43/54/46 48/55/48 42/48/42 37/47/40
f 44/53/47 38/46/41 39/42/37 45/49/43
f 42/48/42 48/55/48 47/43/38 41/36/32
f 52/51/45 51/56/49 45/49/43 46/44/39
f 53/50/44 59/57/50 58/58/51 52/51/45
f 49/59/52 43/52/46 44/53/47 50/60/53
f 49/61/52 54/62/54 48/55/48 43/54/46
f 50/60/53 44/53/47 45/49/43 51/56/49
f 48/55/48 54/62/54 53/50/44 47/43/38
f 58/58/51 57/63/55 51/56/49 52/51/45
f 59/57/50 65/64/56 64/65/57 58/58/51
f 55/66/58 49/59/52 50/60/53 56/67/59
f 55/68/58 60/69/60 54/62/54 49/61/52
f 56/67/59 50/60/53 51/56/49 57/63/55
f 54/62/54 60/69/60 59/57/50 53/50/44
f 64/65/57 63/70/61 57/63/55 58/58/51
f 65/64/56 71/71/62 70/72/63 64/65/57
f 61/73/64 55/66/58 56/67/59 62/74/65
f 61/75/64 66/76/66 60/69/60 55/68/58
f 62/74/65 56/67/59 57/63/55 63/70/61
f 60/69/60 66/76/66 65/64/56 59/57/50
f 70/72/63 69/77/67 63/70/61 64/65/57
f 71/71/62 73/78/68 70/72/63
f 67/79/69 61/73/64 62/74/65 68/80/70
f 67/81/69 72/82/71 66/76/66 61/75/64
f 68/80/70 62/74/65 63/70/61 69/77/67
f 66/76/66 72/82/71 71/71/62 65/64/56
f 73/83/68 69/77/67 70/72/63
f 118/84/72 124/85/73 129/86/74 123/87/75
f 73/88/68 67/79/69 68/80/70
f 73/89/68 72/82/71 67/81/69
f 73/90/68 68/80/70 69/77/67
f 72/82/71 73/91/68 71/71/62
f 5/4/4 11/3/3 10/8/8 4/92/76
f 2/10/10 8/9/9 7/16/16 1/93/77
f 1/94/77 7/20/16 12/2/2 6/1/1
f 11/3/3 17/12/12 16/5/5 10/8/8
f 78/95/78 84/96/79 83/97/80 77/98/81
f 79/87/82 85/86/83 84/96/79 78/95/78
f 110/99/84 116/100/85 115/101/86
f 111/102/87 116/103/85 110/99/84
f 88/104/88 87/105/89 81/106/90 82/107/91
f 89/108/92 88/104/88 82/107/91 83/97/80
f 90/109/93 89/108/92 83/97/80 84/96/79
f 94/110/94 93/111/95 87/105/89 88/104/88
f 95/112/96 94/110/94 88/104/88 89/108/92
f 86/113/97 92/114/98 97/115/99 91/116/100
f 87/105/89 93/111/95 92/114/98 86/113/97
f 100/117/101 99/118/102 93/111/95 94/110/94
f 90/109/93 96/119/103 95/112/96 89/108/92
f 91/116/100 97/115/99 96/119/103 90/109/93
f 101/120/104 100/117/101 94/110/94 95/112/96
f 92/114/98 98/121/105 103/122/106 97/115/99
f 93/111/95 99/118/102 98/121/105 92/114/98
f 106/123/107 105/124/108 99/118/102 100/117/101
f 96/119/103 102/125/109 101/120/104 95/112/96
f 97/115/99 103/122/106 102/125/109 96/119/103
f 107/126/110 106/123/107 100/117/101 101/120/104
f 98/121/105 104/127/111 109/128/112 103/122/106
f 99/118/102 105/124/108 104/127/111 98/121/105
f 112/129/113 111/102/87 105/124/108 106/123/107
f 102/125/109 108/130/114 107/126/110 101/120/104
f 103/122/106 109/128/112 108/130/114 102/125/109
f 113/131/115 112/129/113 106/123/107 107/126/110
f 104/127/111 110/99/84 115/101/86 109/128/112
f 105/124/108 111/102/87 110/99/84 104/127/111
f 112/129/113 116/132/85 111/102/87
f 108/130/114 114/133/116 113/131/115 107/126/110
f 109/128/112 115/101/86 114/133/116 108/130/114
f 113/131/115 116/134/85 112/129/113
f 81/106/90 87/105/89 86/113/97 80/85/117
f 85/86/83 91/116/100 90/109/93 84/96/79
f 91/116/100 85/86/83 80/85/117 86/113/97
f 114/133/116 116/135/85 113/131/115
f 115/101/86 116/136/85 114/133/116
f 75/137/118 81/106/90 80/85/117 74/84/119
f 259/138/120 265/107/121 264/106/122 258/137/123
f 77/98/81 83/97/80 82/107/91 76/138/124
f 74/84/119 80/85/117 85/86/83 79/87/82
f 122/95/125 128/96/126 127/97/127 121/98/128
f 123/87/75 129/86/74 128/96/126 122/95/125
f 135/116/129 129/86/74 124/85/73 130/113/130
f 131/105/131 130/113/130 124/85/73 125/106/132
f 156/129/133 162/134/134 161/132/135 155/102/136
f 157/131/137 163/135/138 162/134/134 156/129/133
f 133/108/139 127/97/127 128/96/126 134/109/140
f 132/104/141 131/105/131 125/106/132 126/107/142
f 127/97/127 133/108/139 132/104/141 126/107/142
f 142/121/143 147/122/144 141/115/145 136/114/146
f 143/118/147 142/121/143 136/114/146 137/111/148
f 132/104/141 138/110/149 137/111/148 131/105/131
f 140/119/150 139/112/151 133/108/139 134/109/140
f 141/115/145 140/119/150 134/109/140 135/116/129
f 133/108/139 139/112/151 138/110/149 132/104/141
f 148/127/152 153/128/153 147/122/144 142/121/143
f 149/124/154 148/127/152 142/121/143 143/118/147
f 138/110/149 144/117/155 143/118/147 137/111/148
f 146/125/156 145/120/157 139/112/151 140/119/150
f 147/122/144 146/125/156 140/119/150 141/115/145
f 139/112/151 145/120/157 144/117/155 138/110/149
f 154/99/158 159/101/159 153/128/153 148/127/152
f 155/102/136 154/99/158 148/127/152 149/124/154
f 144/117/155 150/123/160 149/124/154 143/118/147
f 152/130/161 151/126/162 145/120/157 146/125/156
f 153/128/153 152/130/161 146/125/156 147/122/144
f 145/120/157 151/126/162 150/123/160 144/117/155
f 154/99/158 160/103/163 165/100/164 159/101/159
f 155/102/136 161/132/135 160/103/163 154/99/158
f 150/123/160 156/129/133 155/102/136 149/124/154
f 158/133/165 157/131/137 151/126/162 152/130/161
f 159/101/159 158/133/165 152/130/161 153/128/153
f 151/126/162 157/131/137 156/129/133 150/123/160
f 136/114/146 141/115/145 135/116/129 130/113/130
f 137/111/148 136/114/146 130/113/130 131/105/131
f 135/116/129 134/109/140 128/96/126 129/86/74
f 158/133/165 164/136/166 163/135/138 157/131/137
f 159/101/159 165/100/164 164/136/166 158/133/165
f 119/137/167 125/106/132 124/85/73 118/84/72
f 120/138/168 126/107/142 125/106/132 119/137/167
f 121/98/128 127/97/127 126/107/142 120/138/168
f 210/10/169 216/9/170 215/16/171 209/93/172
f 170/95/173 176/96/174 175/97/175 169/98/176
f 171/87/177 177/86/178 176/96/174 170/95/173
f 202/99/179 208/100/180 207/101/181
f 203/102/182 208/103/180 202/99/179
f 180/104/183 179/105/184 173/106/185 174/107/186
f 181/108/187 180/104/183 174/107/186 175/97/175
f 182/109/188 181/108/187 175/97/175 176/96/174
f 186/110/189 185/111/190 179/105/184 180/104/183
f 187/112/191 186/110/189 180/104/183 181/108/187
f 178/113/192 184/114/193 189/115/194 183/116/195
f 179/105/184 185/111/190 184/114/193 178/113/192
f 192/117/196 191/118/197 185/111/190 186/110/189
f 182/109/188 188/119/198 187/112/191 181/108/187
f 183/116/195 189/115/194 188/119/198 182/109/188
f 193/120/199 192/117/196 186/110/189 187/112/191
f 184/114/193 190/121/200 195/122/201 189/115/194
f 185/111/190 191/118/197 190/121/200 184/114/193
f 198/123/202 197/124/203 191/118/197 192/117/196
f 188/119/198 194/125/204 193/120/199 187/112/191
f 189/115/194 195/122/201 194/125/204 188/119/198
f 199/126/205 198/123/202 192/117/196 193/120/199
f 190/121/200 196/127/206 201/128/207 195/122/201
f 191/118/197 197/124/203 196/127/206 190/121/200
f 204/129/208 203/102/182 197/124/203 198/123/202
f 194/125/204 200/130/209 199/126/205 193/120/199
f 195/122/201 201/128/207 200/130/209 194/125/204
f 205/131/210 204/129/208 198/123/202 199/126/205
f 196/127/206 202/99/179 207/101/181 201/128/207
f 197/124/203 203/102/182 202/99/179 196/127/206
f 204/129/208 208/132/180 203/102/182
f 200/130/209 206/133/211 205/131/210 199/126/205
f 201/128/207 207/101/181 206/133/211 200/130/209
f 205/131/210 208/134/180 204/129/208
f 173/106/185 179/105/184 178/113/192 172/85/212
f 177/86/178 183/116/195 182/109/188 176/96/174
f 183/116/195 177/86/178 172/85/212 178/113/192
f 206/133/211 208/135/180 205/131/210
f 207/101/181 208/136/180 206/133/211
f 167/137/213 173/106/185 172/85/212 166/84/214
f 169/98/176 175/97/175 174/107/186 168/138/215
f 166/84/214 172/85/212 177/86/178 171/87/177
f 211/11/216 217/7/217 216/9/170 210/10/169
f 214/1/218 220/2/219 219/3/220 213/4/221
f 249/71/222 251/78/223 248/72/224
f 222/25/225 221/24/226 215/16/171 216/9/170
f 221/26/226 226/27/227 220/2/219 215/20/171
f 248/72/224 251/83/223 247/77/228
f 226/27/227 225/13/229 219/3/220 220/2/219
f 218/8/230 224/14/231 223/21/232 217/7/217
f 234/53/233 233/52/234 227/38/235 228/39/236
f 233/54/234 238/55/237 232/41/238 227/40/235
f 223/21/232 229/35/239 228/39/236 222/25/225
f 231/29/240 230/30/241 224/14/231 225/13/229
f 232/41/238 231/29/240 225/13/229 226/27/227
f 224/14/231 230/30/241 229/35/239 223/21/232
f 240/67/242 239/66/243 233/52/234 234/53/233
f 239/68/243 244/69/244 238/55/237 233/54/234
f 229/35/239 235/49/245 234/53/233 228/39/236
f 237/43/246 236/44/247 230/30/241 231/29/240
f 238/55/237 237/43/246 231/29/240 232/41/238
f 230/30/241 236/44/247 235/49/245 229/35/239
f 246/80/248 245/79/249 239/66/243 240/67/242
f 245/81/249 250/82/250 244/69/244 239/68/243
f 235/49/245 241/63/251 240/67/242 234/53/233
f 243/57/252 242/58/253 236/44/247 237/43/246
f 244/69/244 243/57/252 237/43/246 238/55/237
f 236/44/247 242/58/253 241/63/251 235/49/245
f 246/80/248 251/88/223 245/79/249
f 251/89/223 250/82/250 245/81/249
f 241/63/251 247/77/228 246/80/248 240/67/242
f 249/71/222 248/72/224 242/58/253 243/57/252
f 250/82/250 249/71/222 243/57/252 244/69/244
f 242/58/253 248/72/224 247/77/228 241/63/251
f 228/39/236 227/38/235 221/24/226 222/25/225
f 227/40/235 232/41/238 226/27/227 221/26/226
f 9/7/7 3/11/11 4/92/76 10/8/8
f 225/13/229 224/14/231 218/8/230 219/3/220
f 247/77/228 251/90/223 246/80/248
f 250/82/250 251/91/223 249/71/222
f 76/138/124 82/107/91 81/106/90 75/137/118
f 215/20/171 220/2/219 214/1/218 209/94/172
f 212/92/254 218/8/230 217/7/217 211/11/216
f 213/4/221 219/3/220 218/8/230 212/92/254
f 261/95/255 267/96/256 266/97/257 260/98/258
f 262/87/259 268/86/260 267/96/256 261/95/255
f 293/99/261 299/100/262 298/101/263
f 294/102/264 299/103/262 293/99/261
f 271/104/265 270/105/266 264/106/122 265/107/121
f 272/108/267 271/104/265 265/107/121 266/97/257
f 273/109/268 272/108/267 266/97/257 267/96/256
f 277/110/269 276/111/270 270/105/266 271/104/265
f 278/112/271 277/110/269 271/104/265 272/108/267
f 269/113/272 275/114/273 280/115/274 274/116/275
f 270/105/266 276/111/270 275/114/273 269/113/272
f 283/117/276 282/118/277 276/111/270 277/110/269
f 273/109/268 279/119/278 278/112/271 272/108/267
f 274/116/275 280/115/274 279/119/278 273/109/268
f 284/120/279 283/117/276 277/110/269 278/112/271
f 275/114/273 281/121/280 286/122/281 280/115/274
f 276/111/270 282/118/277 281/121/280 275/114/273
f 289/123/282 288/124/283 282/118/277 283/117/276
f 279/119/278 285/125/284 284/120/279 278/112/271
f 280/115/274 286/122/281 285/125/284 279/119/278
f 290/126/285 289/123/282 283/117/276 284/120/279
f 281/121/280 287/127/286 292/128/287 286/122/281
f 282/118/277 288/124/283 287/127/286 281/121/280
f 295/129/288 294/102/264 288/124/283 289/123/282
f 285/125/284 291/130/289 290/126/285 284/120/279
f 286/122/281 292/128/287 291/130/289 285/125/284
f 296/131/290 295/129/288 289/123/282 290/126/285
f 287/127/286 293/99/261 298/101/263 292/128/287
f 288/124/283 294/102/264 293/99/261 287/127/286
f 295/129/288 299/132/262 294/102/264
f 291/130/289 297/133/291 296/131/290 290/126/285
f 292/128/287 298/101/263 297/133/291 291/130/289
f 296/131/290 299/134/262 295/129/288
f 264/106/122 270/105/266 269/113/272 263/85/292
f 268/86/260 274/116/275 273/109/268 267/96/256
f 274/116/275 268/86/260 263/85/292 269/113/272
f 297/133/291 299/135/262 296/131/290
f 298/101/263 299/136/262 297/133/291
f 258/137/123 264/106/122 263/85/292 257/84/293
f 168/138/215 174/107/186 173/106/185 167/137/213
f 260/98/258 266/97/257 265/107/121 259/138/120
f 257/84/293 263/85/292 268/86/260 262/87/259
f 217/7/217 223/21/232 222/25/225 216/9/170
f 1/94/77 6/1/1 117/94/294
f 2/10/10 1/93/77 117/10/294
f 4/92/76 3/11/11 117/92/294
f 5/4/4 4/92/76 117/4/294
f 6/1/1 5/4/4 117/1/294
f 3/11/11 2/10/10 117/11/294
f 303/129/295 302/102/296 255/124/297 254/123/298
f 304/131/299 303/129/295 254/123/298 253/126/300
f 256/127/301 301/99/302 306/101/303 300/128/304
f 255/124/297 302/102/296 301/99/302 256/127/301
f 252/130/305 305/133/306 304/131/299 253/126/300
f 300/128/304 306/101/303 305/133/306 252/130/305
f 301/99/302 302/102/296 303/129/295 304/131/299 305/133/306 306/101/303
f 315/129/307 314/102/308 308/124/309 309/123/310
f 316/131/311 315/129/307 309/123/310 310/126/312
f 307/127/313 313/99/314 318/101/315 312/128/316
f 308/124/309 314/102/308 313/99/314 307/127/313
f 311/130/317 317/133/318 316/131/311 310/126/312
f 312/128/316 318/101/315 317/133/318 311/130/317
f 313/99/314 314/102/308 315/129/307 316/131/311 317/133/318 318/101/315
f 327/129/319 326/102/320 320/124/321 321/123/322
f 328/131/323 327/129/319 321/123/322 322/126/324
f 319/127/325 325/99/326 330/101/327 324/128/328
f 320/124/321 326/102/320 325/99/326 319/127/325
f 323/130/329 329/133/330 328/131/323 322/126/324
f 324/128/328 330/101/327 329/133/330 323/130/329
f 325/99/326 326/102/320 327/129/319 328/131/323 329/133/330 330/101/327
s 0
usemtl Material.002
f 331/93/331 332/88/331 334/139/331 333/94/331
f 335/93/332 336/88/332 338/139/332 337/94/332
f 339/93/333 340/88/333 342/139/333 341/94/333
f 343/93/334 344/88/334 346/139/334 345/94/334
f 347/93/335 348/88/335 350/139/335 349/94/335
f 351/93/336 352/88/336 354/139/336 353/94/336
f 355/93/337 356/88/337 358/139/337 357/94/337
f 359/93/338 360/88/338 362/139/338 361/94/338
f 363/93/339 364/88/339 366/139/339 365/94/339
f 367/93/340 368/88/340 370/139/340 369/94/340
f 371/93/341 372/88/341 374/139/341 373/94/341
f 375/93/342 376/88/342 378/139/342 377/94/342
f 379/93/343 380/88/343 382/139/343 381/94/343
f 383/93/344 384/88/344 386/139/344 385/94/344
f 387/93/345 388/88/345 390/139/345 389/94/345
f 391/93/346 392/88/346 394/139/346 393/94/346
f 395/93/347 396/88/347 398/139/347 397/94/347
f 399/93/348 400/88/348 402/139/348 401/94/348
f 403/93/349 404/88/349 406/139/349 405/94/349
f 407/93/350 408/88/350 410/139/350 409/94/350
f 411/93/351 412/88/351 414/139/351 413/94/351
f 415/93/352 416/88/352 418/139/352 417/94/352
f 419/93/353 420/88/353 422/139/353 421/94/353
f 423/93/354 424/88/354 426/139/354 425/94/354
f 427/93/355 428/88/355 430/139/355 429/94/355
f 431/93/356 432/88/356 434/139/356 433/94/356
f 435/93/357 436/88/357 438/139/357 437/94/357
f 439/93/358 440/88/358 442/139/358 441/94/358
f 443/93/359 444/88/359 446/139/359 445/94/359
f 447/93/360 448/88/360 450/139/360 449/94/360
f 451/93/361 452/88/361 454/139/361 453/94/361
f 455/93/362 456/88/362 458/139/362 457/94/362
f 459/93/363 460/88/363 462/139/363 461/94/363
f 463/93/364 464/88/364 466/139/364 465/94/364
f 467/93/365 468/88/365 470/139/365 469/94/365
f 471/93/366 472/88/366 474/139/366 473/94/366
f 475/93/367 476/88/367 478/139/367 477/94/367
f 479/93/368 480/88/368 482/139/368 481/94/368
f 483/93/369 484/88/369 486/139/369 485/94/369
f 487/93/370 488/88/370 490/139/370 489/94/370
f 491/93/371 492/88/371 494/139/371 493/94/371
f 495/93/372 496/88/372 498/139/372 497/94/372
f 499/93/373 500/88/373 502/139/373 501/94/373
f 503/93/374 504/88/374 506/139/374 505/94/374
f 507/93/375 508/88/375 510/139/375 509/94/375
f 511/93/376 512/88/376 514/139/376 513/94/376
f 515/93/377 516/88/377 518/139/377 517/94/377
f 519/93/378 520/88/378 522/139/378 521/94/378
f 523/93/379 524/88/379 526/139/379 525/94/379
f 527/93/380 528/88/380 530/139/380 529/94/380
f 531/93/381 532/88/381 534/139/381 533/94/381
f 535/93/382 536/88/382 538/139/382 537/94/382
f 539/93/383 540/88/383 542/139/383 541/94/383
f 543/93/384 544/88/384 546/139/384 545/94/384
f 547/93/385 548/88/385 550/139/385 549/94/385
f 551/93/386 552/88/386 554/139/386 553/94/386
f 555/93/387 556/88/387 558/139/387 557/94/387
f 559/93/388 560/88/388 562/139/388 561/94/388
f 563/93/389 564/88/389 566/139/389 565/94/389
f 567/93/390 568/88/390 570/139/390 569/94/390
f 571/93/391 572/88/391 574/139/391 573/94/391
f 575/93/392 576/88/392 578/139/392 577/94/392
f 579/93/393 580/88/393 582/139/393 581/94/393
f 583/93/394 584/88/394 586/139/394 585/94/394
f 587/93/395 588/88/395 590/139/395 589/94/395
f 591/93/396 592/88/396 594/139/396 593/94/396
f 595/93/397 596/88/397 598/139/397 597/94/397
f 599/93/398 600/88/398 602/139/398 601/94/398
f 603/93/399 604/88/399 606/139/399 605/94/399
f 607/93/400 608/88/400 610/139/400 609/94/400
f 611/93/401 612/88/401 614/139/401 613/94/401
f 615/93/402 616/88/402 618/139/402 617/94/402
f 619/93/403 620/88/403 622/139/403 621/94/403
f 623/93/404 624/88/404 626/139/404 625/94/404
f 627/93/405 628/88/405 630/139/405 629/94/405
f 631/93/406 632/88/406 634/139/406 633/94/406
f 635/93/407 636/88/407 638/139/407 637/94/407
f 639/93/408 640/88/408 642/139/408 641/94/408
f 643/93/409 644/88/409 646/139/409 645/94/409
f 647/93/410 648/88/410 650/139/410 649/94/410
f 651/93/411 652/88/411 654/139/411 653/94/411
f 655/93/412 656/88/412 658/139/412 657/94/412
f 659/93/413 660/88/413 662/139/413 661/94/413
f 663/93/414 664/88/414 666/139/414 665/94/414
f 667/93/415 668/88/415 670/139/415 669/94/415
f 671/93/416 672/88/416 674/139/416 673/94/416
f 675/93/417 676/88/417 678/139/417 677/94/417
f 679/93/418 680/88/418 682/139/418 681/94/418
f 683/93/419 684/88/419 686/139/419 685/94/419
f 687/93/420 688/88/420 690/139/420 689/94/420
f 691/93/421 692/88/421 694/139/421 693/94/421
f 695/93/422 696/88/422 698/139/422 697/94/422
f 699/93/423 700/88/423 702/139/423 701/94/423
f 703/93/424 704/88/424 706/139/424 705/94/424
f 707/93/425 708/88/425 710/139/425 709/94/425
f 711/93/426 712/88/426 714/139/426 713/94/426
f 715/93/427 716/88/427 718/139/427 717/94/427
f 719/93/428 720/88/428 722/139/428 721/94/428
f 723/93/429 724/88/429 726/139/429 725/94/429
f 727/93/430 728/88/430 730/139/430 729/94/430
f 731/93/431 732/88/431 734/139/431 733/94/431
f 735/93/432 736/88/432 738/139/432 737/94/432
f 739/93/433 740/88/433 742/139/433 741/94/433
f 743/93/434 744/88/434 746/139/434 745/94/434
f 747/93/435 748/88/435 750/139/435 749/94/435
f 751/93/436 752/88/436 754/139/436 753/94/436
f 755/93/437 756/88/437 758/139/437 757/94/437
f 759/93/438 760/88/438 762/139/438 761/94/438
f 763/93/439 764/88/439 766/139/439 765/94/439
f 767/93/440 768/88/440 770/139/440 769/94/440
f 771/93/441 772/88/441 774/139/441 773/94/441
f 775/93/442 776/88/442 778/139/442 777/94/442
f 779/93/443 780/88/443 782/139/443 781/94/443
f 783/93/444 784/88/444 786/139/444 785/94/444
f 787/93/445 788/88/445 790/139/445 789/94/445
f 791/93/446 792/88/446 794/139/446 793/94/446
f 795/93/447 796/88/447 798/139/447 797/94/447
f 799/93/448 800/88/448 802/139/448 801/94/448
f 803/93/449 804/88/449 806/139/449 805/94/449
f 807/93/450 808/88/450 810/139/450 809/94/450
f 811/93/451 812/88/451 814/139/451 813/94/451
f 815/93/452 816/88/452 818/139/452 817/94/452
f 819/93/453 820/88/453 822/139/453 821/94/453
f 823/93/454 824/88/454 826/139/454 825/94/454
f 827/93/455 828/88/455 830/139/455 829/94/455
f 831/93/456 832/88/456 834/139/456 833/94/456
f 835/93/457 836/88/457 838/139/457 837/94/457
f 839/93/458 840/88/458 842/139/458 841/94/458
f 843/93/459 844/88/459 846/139/459 845/94/459
f 847/93/460 848/88/460 850/139/460 849/94/460
f 851/93/461 852/88/461 854/139/461 853/94/461
f 855/93/462 856/88/462 858/139/462 857/94/462
f 859/93/463 860/88/463 862/139/463 861/94/463
f 863/93/464 864/88/464 866/139/464 865/94/464
f 867/93/465 868/88/465 870/139/465 869/94/465
f 871/93/466 872/88/466 874/139/466 873/94/466
f 875/93/467 876/88/467 878/139/467 877/94/467
f 879/93/468 880/88/468 882/139/468 881/94/468
f 883/93/469 884/88/469 886/139/469 885/94/469
f 887/93/470 888/88/470 890/139/470 889/94/470
f 891/93/471 892/88/471 894/139/471 893/94/471
f 895/93/472 896/88/472 898/139/472 897/94/472
f 899/93/473 900/88/473 902/139/473 901/94/473
f 903/93/474 904/88/474 906/139/474 905/94/474
f 907/93/475 908/88/475 910/139/475 909/94/475
f 911/93/476 912/88/476 914/139/476 913/94/476
f 915/93/477 916/88/477 918/139/477 917/94/477
f 919/93/478 920/88/478 922/139/478 921/94/478
f 923/93/479 924/88/479 926/139/479 925/94/479
f 927/93/480 928/88/480 930/139/480 929/94/480
f 931/93/481 932/88/481 934/139/481 933/94/481
f 935/93/482 936/88/482 938/139/482 937/94/482
f 939/93/483 940/88/483 942/139/483 941/94/483
f 943/93/484 944/88/484 946/139/484 945/94/484
f 947/93/485 948/88/485 950/139/485 949/94/485
f 951/93/486 952/88/486 954/139/486 953/94/486
f 955/93/377 956/88/377 958/139/377 957/94/377
f 959/93/487 960/88/487 962/139/487 961/94/487
f 963/93/488 964/88/488 966/139/488 965/94/488
f 967/93/489 968/88/489 970/139/489 969/94/489
f 971/93/490 972/88/490 974/139/490 973/94/490
f 975/93/491 976/88/491 978/139/491 977/94/491
f 979/93/492 980/88/492 982/139/492 981/94/492
f 983/93/493 984/88/493 986/139/493 985/94/493
f 987/93/494 988/88/494 990/139/494 989/94/494
f 991/93/495 992/88/495 994/139/495 993/94/495
f 995/93/496 996/88/496 998/139/496 997/94/496
f 999/93/497 1000/88/497 1002/139/497 1001/94/497
f 1003/93/498 1004/88/498 1006/139/498 1005/94/498
f 1007/93/499 1008/88/499 1010/139/499 1009/94/499
f 1011/93/500 1012/88/500 1014/139/500 1013/94/500
f 1015/93/501 1016/88/501 1018/139/501 1017/94/501
f 1019/93/502 1020/88/502 1022/139/502 1021/94/502
f 1023/93/503 1024/88/503 1026/139/503 1025/94/503
f 1027/93/504 1028/88/504 1030/139/504 1029/94/504
f 1031/93/505 1032/88/505 1034/139/505 1033/94/505
f 1035/93/506 1036/88/506 1038/139/506 1037/94/506
f 1039/93/507 1040/88/507 1042/139/507 1041/94/507
f 1043/93/508 1044/88/508 1046/139/508 1045/94/508
f 1047/93/509 1048/88/509 1050/139/509 1049/94/509
f 1051/93/510 1052/88/510 1054/139/510 1053/94/510
f 1055/93/511 1056/88/511 1058/139/511 1057/94/511
f 1059/93/512 1060/88/512 1062/139/512 1061/94/512
f 1063/93/513 1064/88/513 1066/139/513 1065/94/513
f 1067/93/514 1068/88/514 1070/139/514 1069/94/514
f 1071/93/515 1072/88/515 1074/139/515 1073/94/515
f 1075/93/516 1076/88/516 1078/139/516 1077/94/516
f 1079/93/517 1080/88/517 1082/139/517 1081/94/517
f 1083/93/518 1084/88/518 1086/139/518 1085/94/518
f 1087/93/519 1088/88/519 1090/139/519 1089/94/519
f 1091/93/520 1092/88/520 1094/139/520 1093/94/520
f 1095/93/521 1096/88/521 1098/139/521 1097/94/521
f 1099/93/522 1100/88/522 1102/139/522 1101/94/522
f 1103/93/523 1104/88/523 1106/139/523 1105/94/523
f 1107/93/524 1108/88/524 1110/139/524 1109/94/524
f 1111/93/525 1112/88/525 1114/139/525 1113/94/525
f 1115/93/526 1116/88/526 1118/139/526 1117/94/526
f 1119/93/527 1120/88/527 1122/139/527 1121/94/527
f 1123/93/528 1124/88/528 1126/139/528 1125/94/528
f 1127/93/529 1128/88/529 1130/139/529 1129/94/529
